<svg width="66" height="59" viewBox="0 0 66 59" fill="none" xmlns="http://www.w3.org/2000/svg">
<circle cx="37" cy="30" r="4" stroke="#E1A200" stroke-width="2"/>
<path d="M47.6116 27.7451C47.7601 28.4736 47.838 29.2277 47.838 30C47.838 30.7724 47.7601 31.5265 47.6116 32.255L50.0298 33.6457C50.9562 34.1785 51.2766 35.362 50.7394 36.289L49.3339 38.7139C48.798 39.6385 47.6145 39.9524 46.6903 39.4209L44.3916 38.0989C43.2476 39.2014 41.8709 40.0653 40.3423 40.6106V43.0667C40.3423 44.1381 39.4715 45 38.4054 45H35.5945C34.5284 45 33.6575 44.1381 33.6575 43.0667V40.8994C31.9162 40.4447 30.3384 39.5865 29.0311 38.431L27.3097 39.4209L26.8112 38.5541L27.3097 39.4209C26.3855 39.9525 25.202 39.6386 24.6661 38.7139L23.2606 36.289L24.1258 35.7876L23.2606 36.289C22.7234 35.3621 23.0438 34.1786 23.9702 33.6458M47.6116 27.7451L25.8541 33.7159C25.7414 33.3943 25.6429 33.066 25.5594 32.7318M47.6116 27.7451L50.0299 26.3543C50.9563 25.8215 51.2768 24.638 50.7395 23.711L49.334 21.2861C48.7981 20.3615 47.6146 20.0476 46.6904 20.5791L44.3916 21.9012C43.2477 20.7987 41.8709 19.9347 40.3423 19.3894V16.9333C40.3423 15.8619 39.4715 15 38.4054 15H35.5945C34.5284 15 33.6575 15.8619 33.6575 16.9333V19.1006C31.9162 19.5553 30.3383 20.4135 29.031 21.5691L27.3096 20.5791C26.3854 20.0475 25.2019 20.3614 24.666 21.2861L23.2605 23.711C22.7232 24.6379 23.0437 25.8214 23.9701 26.3542L25.5594 27.2682C25.3408 28.1428 25.2248 29.0578 25.2248 30C25.2248 30.9422 25.3408 31.8573 25.5594 32.7318M23.9702 33.6458L24.4688 34.5126L23.9702 33.6458L23.9702 33.6458ZM23.9702 33.6458L25.5594 32.7318M25.5594 32.7318L26.4045 32.2458C26.4245 32.2343 26.4446 32.2232 26.4648 32.2125" stroke="#E1A200" stroke-width="2"/>
<path d="M1.95081 17.4645L16.2229 8.81259L16.35 24.154" stroke="#E1A200" stroke-width="2" stroke-linecap="round" stroke-linejoin="round"/>
<path d="M36.5216 1C34.902 1 33.3139 1.13489 31.768 1.39405M14.8663 10.9517C10.5861 15.9367 8 22.4166 8 29.5C8 45.2401 20.7696 58 36.5216 58C51.0208 58 62.993 47.1892 64.8058 33.1944M21.2045 5.45434C22.6313 4.54493 24.1445 3.75884 25.729 3.11111M42.8598 1.70622C44.1263 1.99338 45.3608 2.36477 46.557 2.81416M52.367 5.79924C53.6806 6.67789 54.9171 7.6627 56.0642 8.74137M60.2404 13.6667C61.1329 14.999 61.9159 16.4107 62.5767 17.8889M64.4511 23.6944C64.7356 25.0683 64.9212 26.4783 65 27.9167" stroke="#E1A200" stroke-width="2" stroke-linecap="round" stroke-linejoin="round"/>
</svg>
