<svg width="26" height="25" viewBox="0 0 26 25" fill="none" xmlns="http://www.w3.org/2000/svg">
<path d="M12.8631 0C6.08772 0 0.575439 5.51228 0.575439 12.2877C0.575439 19.0626 6.08772 24.5753 12.8631 24.5753C19.638 24.5753 25.1508 19.0626 25.1508 12.2877C25.1508 5.51228 19.639 0 12.8631 0ZM15.9189 12.7203H13.9198C13.9198 15.9142 13.9198 19.8456 13.9198 19.8456H10.9575C10.9575 19.8456 10.9575 15.9523 10.9575 12.7203H9.54941V10.2019H10.9575V8.57306C10.9575 7.40646 11.5119 5.58355 13.9471 5.58355L16.1422 5.59196V8.03653C16.1422 8.03653 14.8083 8.03653 14.5489 8.03653C14.2896 8.03653 13.9208 8.16621 13.9208 8.72253V10.2024H16.1778L15.9189 12.7203Z" fill="#BBBBBB"/>
</svg>
