<svg width="25" height="25" viewBox="0 0 25 25" fill="none" xmlns="http://www.w3.org/2000/svg">
<path d="M15.95 6.53828H8.6254C7.45629 6.53828 6.50513 7.48945 6.50513 8.65856V15.9831C6.50513 17.1522 7.45629 18.1037 8.6254 18.1037H15.95C17.1191 18.1037 18.0705 17.1525 18.0705 15.9831V8.65856C18.0705 7.48945 17.1194 6.53828 15.95 6.53828ZM12.2877 16.1282C10.1885 16.1282 8.48056 14.4203 8.48056 12.3208C8.48056 10.2217 10.1885 8.51372 12.2877 8.51372C14.3872 8.51372 16.0951 10.2217 16.0951 12.3208C16.0951 14.42 14.3869 16.1282 12.2877 16.1282ZM16.2175 9.30088C15.7205 9.30088 15.3164 8.89676 15.3164 8.40009C15.3164 7.90343 15.7205 7.49931 16.2175 7.49931C16.7141 7.49931 17.1183 7.90343 17.1183 8.40009C17.1183 8.89676 16.7141 9.30088 16.2175 9.30088Z" fill="#BBBBBB"/>
<path d="M12.2877 10.1224C11.0759 10.1224 10.0891 11.1086 10.0891 12.3204C10.0891 13.5328 11.0759 14.5193 12.2877 14.5193C13.5001 14.5193 14.486 13.5328 14.486 12.3204C14.486 11.1089 13.4998 10.1224 12.2877 10.1224Z" fill="#BBBBBB"/>
<path d="M12.2877 0C5.50165 0 0 5.50165 0 12.2877C0 19.0737 5.50165 24.5753 12.2877 24.5753C19.0737 24.5753 24.5753 19.0737 24.5753 12.2877C24.5753 5.50165 19.0737 0 12.2877 0ZM19.6791 15.9831C19.6791 18.0396 18.0064 19.7122 15.95 19.7122H8.62538C6.56918 19.7122 4.89629 18.0396 4.89629 15.9831V8.65851C4.89629 6.60231 6.56918 4.92941 8.62538 4.92941H15.95C18.0064 4.92941 19.6791 6.60231 19.6791 8.65851V15.9831Z" fill="#BBBBBB"/>
</svg>
