<svg width="80" height="18" viewBox="0 0 80 18" fill="none" xmlns="http://www.w3.org/2000/svg">
<path d="M0.561453 0.899999H2.26345V15.528H11.2795V17H0.561453V0.899999ZM14.1054 0.899999H15.8074V17H14.1054V0.899999ZM31.1888 8.697C32.2468 8.927 33.0595 9.387 33.6268 10.077C34.2095 10.7517 34.5008 11.6257 34.5008 12.699C34.5008 14.079 33.9872 15.1447 32.9598 15.896C31.9478 16.632 30.4452 17 28.4518 17H21.0458V0.899999H27.9918C29.7858 0.899999 31.1735 1.26033 32.1548 1.981C33.1515 2.70167 33.6498 3.72133 33.6498 5.04C33.6498 5.92933 33.4275 6.68833 32.9828 7.317C32.5535 7.93033 31.9555 8.39033 31.1888 8.697ZM22.7478 2.303V8.145H27.8768C29.1802 8.145 30.1845 7.89967 30.8898 7.409C31.5952 6.903 31.9478 6.17467 31.9478 5.224C31.9478 4.27333 31.5952 3.55267 30.8898 3.062C30.1845 2.556 29.1802 2.303 27.8768 2.303H22.7478ZM28.4288 15.597C29.8702 15.597 30.9588 15.3517 31.6948 14.861C32.4308 14.3703 32.7988 13.6037 32.7988 12.561C32.7988 10.5523 31.3422 9.548 28.4288 9.548H22.7478V15.597H28.4288ZM38.3857 0.899999H40.0877V17H38.3857V0.899999ZM45.3261 0.899999H51.8811C53.5831 0.899999 55.0858 1.245 56.3891 1.935C57.6924 2.60967 58.7044 3.56033 59.4251 4.787C60.1458 5.99833 60.5061 7.386 60.5061 8.95C60.5061 10.514 60.1458 11.9093 59.4251 13.136C58.7044 14.3473 57.6924 15.298 56.3891 15.988C55.0858 16.6627 53.5831 17 51.8811 17H45.3261V0.899999ZM51.7891 15.528C53.1998 15.528 54.4341 15.252 55.4921 14.7C56.5501 14.1327 57.3704 13.3583 57.9531 12.377C58.5358 11.3803 58.8271 10.238 58.8271 8.95C58.8271 7.662 58.5358 6.52733 57.9531 5.546C57.3704 4.54933 56.5501 3.775 55.4921 3.223C54.4341 2.65567 53.1998 2.372 51.7891 2.372H47.0281V15.528H51.7891ZM71.3661 17.138C69.7714 17.138 68.3224 16.7853 67.0191 16.08C65.7311 15.3593 64.7191 14.378 63.9831 13.136C63.2624 11.894 62.9021 10.4987 62.9021 8.95C62.9021 7.40133 63.2624 6.006 63.9831 4.764C64.7191 3.522 65.7311 2.54833 67.0191 1.843C68.3224 1.12233 69.7714 0.761999 71.3661 0.761999C72.9607 0.761999 74.3944 1.11467 75.6671 1.82C76.9551 2.52533 77.9671 3.50667 78.7031 4.764C79.4391 6.006 79.8071 7.40133 79.8071 8.95C79.8071 10.4987 79.4391 11.9017 78.7031 13.159C77.9671 14.401 76.9551 15.3747 75.6671 16.08C74.3944 16.7853 72.9607 17.138 71.3661 17.138ZM71.3661 15.62C72.6387 15.62 73.7887 15.3363 74.8161 14.769C75.8434 14.1863 76.6484 13.389 77.2311 12.377C77.8137 11.3497 78.1051 10.2073 78.1051 8.95C78.1051 7.69267 77.8137 6.558 77.2311 5.546C76.6484 4.51867 75.8434 3.72133 74.8161 3.154C73.7887 2.57133 72.6387 2.28 71.3661 2.28C70.0934 2.28 68.9357 2.57133 67.8931 3.154C66.8657 3.72133 66.0531 4.51867 65.4551 5.546C64.8724 6.558 64.5811 7.69267 64.5811 8.95C64.5811 10.2073 64.8724 11.3497 65.4551 12.377C66.0531 13.389 66.8657 14.1863 67.8931 14.769C68.9357 15.3363 70.0934 15.62 71.3661 15.62Z" fill="#E1A200"/>
</svg>
