<svg width="180" height="48" viewBox="0 0 180 48" fill="none" xmlns="http://www.w3.org/2000/svg">
<path fill-rule="evenodd" clip-rule="evenodd" d="M49.4858 37.2091C49.6726 37.2091 49.8196 37.2683 49.9258 37.3865C49.9784 37.445 50.0183 37.5127 50.0446 37.5888C50.0708 37.6643 50.0839 37.7484 50.0839 37.8403C50.0839 37.9216 50.0707 37.9975 50.0443 38.0678C50.018 38.1381 49.9783 38.2028 49.9258 38.2611C49.8726 38.3203 49.8088 38.3649 49.7347 38.3945C49.6615 38.4237 49.5784 38.4385 49.4858 38.4385H40.9834C40.4053 38.4385 39.8546 38.3272 39.3318 38.1047C39.0706 37.9936 38.8273 37.8629 38.6024 37.7129C38.377 37.5626 38.1697 37.3928 37.9807 37.2039C37.7917 37.0149 37.622 36.8076 37.4718 36.5823C37.3216 36.3571 37.1909 36.1138 37.0799 35.8528C36.8574 35.33 36.7461 34.7793 36.7461 34.2012V16.4685C36.7461 16.3044 36.8048 16.1636 36.922 16.0464C37.0392 15.9291 37.1801 15.8704 37.3442 15.8704C37.5305 15.8704 37.6823 15.9291 37.7995 16.0464C37.9167 16.1636 37.9754 16.3044 37.9754 16.4685V34.2012C37.9754 34.4084 37.9946 34.6104 38.0326 34.8066C38.0708 35.0029 38.1281 35.1937 38.2043 35.3786C38.3567 35.7489 38.5693 36.0705 38.8417 36.3429C39.1141 36.6153 39.4357 36.8279 39.8059 36.9803C39.9908 37.0564 40.1816 37.1137 40.378 37.1519C40.5742 37.19 40.7761 37.2091 40.9834 37.2091H49.4858ZM65.5642 37.2091C65.7512 37.2091 65.898 37.2683 66.0043 37.3865C66.0569 37.445 66.0967 37.5127 66.1231 37.5888C66.1491 37.6644 66.1624 37.7484 66.1624 37.8403C66.1624 37.9216 66.149 37.9974 66.1228 38.0678C66.0964 38.1381 66.0568 38.2028 66.0043 38.2611C65.898 38.3793 65.7512 38.4385 65.5642 38.4385H54.2497C54.0856 38.4385 53.9447 38.3798 53.8275 38.2625C53.7103 38.1453 53.6516 38.0045 53.6516 37.8403C53.6516 37.6541 53.7103 37.5023 53.8275 37.3851C53.9447 37.2678 54.0856 37.2091 54.2497 37.2091H59.3088V17.0998H54.8452C54.6811 17.0998 54.5402 17.0411 54.423 16.9238C54.3646 16.8654 54.3204 16.7976 54.2909 16.7211C54.2618 16.645 54.2471 16.5608 54.2471 16.4685C54.2471 16.3044 54.3058 16.1636 54.423 16.0464C54.5402 15.9291 54.6811 15.8704 54.8452 15.8704H64.9687C65.1329 15.8704 65.2737 15.9291 65.3909 16.0464C65.5082 16.1636 65.5669 16.3044 65.5669 16.4685C65.5669 16.6548 65.5082 16.8066 65.3909 16.9238C65.3326 16.9822 65.2679 17.0263 65.1975 17.0556C65.1269 17.085 65.0503 17.0998 64.9687 17.0998H60.505V37.2091H65.5642ZM79.9952 23.3177C80.9874 23.369 81.9165 23.5895 82.7821 23.979C83.2247 24.1781 83.6404 24.4138 84.0284 24.6854C84.4163 24.957 84.7766 25.2646 85.1088 25.6078C85.441 25.951 85.7375 26.321 85.998 26.7172C86.2585 27.1136 86.4829 27.5361 86.6711 27.9843C87.0478 28.8818 87.2363 29.8405 87.2363 30.8598C87.2363 31.38 87.1864 31.8857 87.0866 32.3762C86.987 32.8664 86.8372 33.3417 86.6377 33.8017C86.4381 34.2619 86.2026 34.6928 85.9317 35.0937C85.6606 35.4949 85.3529 35.8676 85.0093 36.2113C84.6658 36.5549 84.2929 36.8626 83.8916 37.1339C83.4907 37.4048 83.0598 37.6402 82.5995 37.8399C82.1395 38.0393 81.6642 38.1891 81.1742 38.2887C80.6835 38.3885 80.1778 38.4385 79.6576 38.4385H72.677C72.5129 38.4385 72.3721 38.3798 72.2548 38.2625C72.1376 38.1453 72.0789 38.0045 72.0789 37.8403V16.5017C72.0789 16.3154 72.1376 16.1636 72.2548 16.0464C72.3721 15.9291 72.5129 15.8704 72.677 15.8704H76.4485C76.7593 15.8704 77.0626 15.9011 77.3574 15.9622C77.652 16.0234 77.9386 16.1153 78.2163 16.2375C78.4938 16.3595 78.7548 16.5026 78.9991 16.6664C79.2433 16.8302 79.4714 17.015 79.6824 17.2205C79.8935 17.4259 80.0814 17.65 80.2453 17.8917C80.4095 18.1339 80.5499 18.3938 80.6665 18.6713C80.7832 18.9494 80.8709 19.2358 80.9292 19.5302C80.9875 19.8245 81.0167 20.1275 81.0167 20.4386C81.0167 21.5257 80.6761 22.4855 79.9952 23.3177ZM73.3083 26.7664C73.5461 26.3965 73.8108 26.0517 74.1022 25.7326C74.4208 25.3836 74.7714 25.0648 75.1534 24.777C75.5358 24.4887 75.9418 24.2421 76.3711 24.0371C76.7998 23.8326 77.2524 23.669 77.7283 23.5473C78.0433 23.4166 78.3263 23.2491 78.5765 23.0451C78.8271 22.8407 79.0455 22.5993 79.2309 22.3211C79.4163 22.0431 79.5555 21.7469 79.6482 21.4334C79.7409 21.1198 79.7873 20.7881 79.7873 20.4386C79.7873 20.2088 79.7655 19.9864 79.722 19.7714C79.6784 19.556 79.6128 19.3474 79.5257 19.1458C79.4387 18.9444 79.336 18.7544 79.2185 18.5767C79.1012 18.3993 78.9687 18.2339 78.8213 18.0813C78.6742 17.9287 78.512 17.7922 78.335 17.6725C78.1579 17.5526 77.9653 17.4488 77.7581 17.3615C77.5513 17.2745 77.3383 17.2089 77.1198 17.1653C76.9016 17.1216 76.6776 17.0998 76.4485 17.0998H73.3083V26.7664ZM79.6576 37.2091C80.5351 37.2091 81.3575 37.0446 82.1249 36.7157C82.8924 36.3868 83.5614 35.9317 84.1315 35.3507C84.7018 34.7694 85.1572 34.0945 85.4972 33.3267C85.6671 32.9429 85.7947 32.5454 85.8796 32.1346C85.9644 31.7239 86.007 31.2988 86.007 30.8598C86.007 29.9825 85.8371 29.1601 85.4972 28.3928C85.1572 27.6252 84.702 26.956 84.1317 26.3857C83.5614 25.8154 82.8922 25.3601 82.1245 25.0202C81.7408 24.8502 81.3433 24.7227 80.9324 24.6377C80.5217 24.553 80.0966 24.5104 79.6576 24.5104C78.7804 24.5104 77.958 24.6803 77.1907 25.0202C76.4228 25.3602 75.748 25.8155 75.1667 26.3859C74.5858 26.9559 74.1306 27.625 73.8016 28.3925C73.6373 28.7759 73.5139 29.1736 73.4317 29.5847C73.3494 29.996 73.3083 30.4211 73.3083 30.8598V37.2091H79.6576ZM104.966 37.2091C105.153 37.2091 105.3 37.2683 105.406 37.3865C105.459 37.445 105.499 37.5127 105.525 37.5888C105.551 37.6644 105.564 37.7484 105.564 37.8403C105.564 37.9216 105.551 37.9974 105.525 38.0678C105.499 38.1381 105.459 38.2028 105.406 38.2611C105.3 38.3793 105.153 38.4385 104.966 38.4385H93.6518C93.4877 38.4385 93.3468 38.3798 93.2296 38.2625C93.1123 38.1453 93.0536 38.0045 93.0536 37.8403C93.0536 37.6541 93.1123 37.5023 93.2296 37.3851C93.3468 37.2678 93.4877 37.2091 93.6518 37.2091H98.7109V17.0998H94.2473C94.0832 17.0998 93.9423 17.0411 93.8251 16.9238C93.7666 16.8654 93.7225 16.7976 93.693 16.7211C93.6639 16.645 93.6491 16.5608 93.6491 16.4685C93.6491 16.3044 93.7078 16.1636 93.8251 16.0464C93.9423 15.9291 94.0832 15.8704 94.2473 15.8704H104.371C104.535 15.8704 104.676 15.9291 104.793 16.0464C104.91 16.1636 104.969 16.3044 104.969 16.4685C104.969 16.6548 104.91 16.8066 104.793 16.9238C104.735 16.9822 104.67 17.0263 104.6 17.0556C104.529 17.085 104.452 17.0998 104.371 17.0998H99.9071V37.2091H104.966ZM112.079 38.4385C111.915 38.4385 111.774 38.3798 111.657 38.2625C111.54 38.1453 111.481 38.0045 111.481 37.8403V20.7363C111.481 20.4036 111.513 20.0799 111.577 19.7656C111.641 19.452 111.737 19.1476 111.865 18.8531C111.992 18.5586 112.144 18.2822 112.319 18.0242C112.494 17.7657 112.692 17.5253 112.914 17.3035C113.136 17.0817 113.376 16.8831 113.635 16.708C113.893 16.5332 114.169 16.3817 114.464 16.254C114.758 16.1261 115.063 16.0301 115.376 15.9664C115.69 15.9025 116.014 15.8704 116.347 15.8704C117.143 15.8704 117.912 15.9438 118.653 16.0902C119.394 16.2367 120.108 16.4568 120.794 16.7501C121.48 17.0431 122.121 17.3902 122.719 17.7912C123.316 18.1923 123.869 18.6474 124.378 19.1562C124.887 19.665 125.342 20.2184 125.743 20.8159C126.144 21.4131 126.491 22.0549 126.784 22.7404C127.077 23.4264 127.298 24.1403 127.444 24.8813C127.591 25.6222 127.664 26.3911 127.664 27.1875C127.664 27.8513 127.6 28.5152 127.473 29.1792C127.346 29.8429 127.155 30.5067 126.901 31.1702C126.647 31.8334 126.339 32.4641 125.98 33.0616C125.621 33.6587 125.208 34.223 124.744 34.754C123.814 35.816 122.703 36.6846 121.409 37.3593C120.761 37.6967 120.079 37.9556 119.362 38.1355C118.646 38.3152 117.894 38.4163 117.109 38.4384L112.079 38.4385ZM112.71 37.2091H117.108C117.799 37.1982 118.462 37.113 119.096 36.9539C119.731 36.7947 120.336 36.5613 120.912 36.254C121.489 35.9464 122.023 35.5972 122.515 35.207C123.007 34.8169 123.456 34.3855 123.863 33.9133C124.269 33.4407 124.631 32.939 124.947 32.4088C125.263 31.8788 125.533 31.3195 125.759 30.7313C125.984 30.1432 126.153 29.5537 126.266 28.9633C126.378 28.373 126.435 27.7808 126.435 27.1875C126.435 26.4841 126.37 25.8025 126.241 25.1432C126.112 24.4839 125.918 23.8464 125.66 23.2313C125.402 22.6159 125.094 22.0415 124.737 21.5088C124.38 20.9759 123.973 20.4842 123.518 20.0338C123.062 19.5835 122.566 19.1794 122.03 18.8224C121.494 18.4653 120.918 18.1547 120.303 17.8909C119.688 17.6274 119.05 17.4295 118.391 17.2976C117.732 17.1658 117.05 17.0998 116.347 17.0998C116.095 17.0998 115.852 17.1244 115.618 17.1734C115.384 17.2223 115.157 17.2961 114.939 17.3943C114.72 17.4927 114.515 17.6076 114.324 17.7386C114.133 17.8695 113.955 18.0172 113.792 18.181C113.628 18.3449 113.48 18.5226 113.349 18.7134C113.218 18.9045 113.103 19.1096 113.005 19.3283C112.907 19.5467 112.833 19.7731 112.784 20.0074C112.735 20.2417 112.71 20.4848 112.71 20.7363V37.2091ZM144.732 38.4385C143.947 38.4385 143.188 38.3651 142.455 38.2187C141.722 38.0721 141.015 37.852 140.335 37.5588C138.974 36.9727 137.779 36.165 136.75 35.1362C135.722 34.1074 134.914 32.9125 134.328 31.5521C134.035 30.8716 133.815 30.1647 133.668 29.4317C133.522 28.6989 133.448 27.9397 133.448 27.1544C133.448 26.3807 133.522 25.6283 133.668 24.8978C133.815 24.1673 134.035 23.459 134.328 22.7735C134.914 21.4019 135.722 20.207 136.751 19.1893C137.265 18.68 137.821 18.2236 138.418 17.8202C139.015 17.4167 139.654 17.0655 140.334 16.7668C141.015 16.4681 141.722 16.2439 142.455 16.0946C143.188 15.9453 143.947 15.8704 144.732 15.8704C146.281 15.8704 147.741 16.1693 149.113 16.7668C149.8 17.0655 150.441 17.4167 151.038 17.8202C151.635 18.2238 152.188 18.6802 152.697 19.1893C153.206 19.6982 153.663 20.2514 154.066 20.8486C154.47 21.4454 154.821 22.0871 155.12 22.7732C155.419 23.459 155.643 24.1674 155.792 24.8976C155.941 25.6281 156.016 26.3805 156.016 27.1544C156.016 28.7252 155.717 30.1913 155.12 31.5523C154.821 32.2327 154.47 32.8716 154.066 33.4685C153.663 34.0657 153.206 34.6218 152.698 35.1361C151.68 36.165 150.485 36.9727 149.113 37.5588C148.428 37.8518 147.719 38.0719 146.989 38.2185C146.258 38.365 145.506 38.4385 144.732 38.4385ZM144.732 17.0998C144.039 17.0998 143.366 17.1658 142.713 17.2975C142.06 17.4291 141.425 17.6272 140.809 17.8909C140.194 18.1546 139.618 18.4667 139.082 18.8264C138.547 19.1861 138.051 19.5942 137.595 20.0503C136.683 20.9624 135.963 22.0285 135.435 23.2481C135.172 23.8578 134.974 24.4883 134.842 25.1393C134.71 25.7898 134.644 26.4617 134.644 27.1544C134.644 27.8472 134.71 28.5206 134.842 29.1737C134.974 29.827 135.172 30.4618 135.436 31.0774C135.699 31.6928 136.011 32.2688 136.371 32.8044C136.731 33.3398 137.139 33.8358 137.595 34.2917C138.051 34.7477 138.547 35.1557 139.082 35.5155C139.618 35.8752 140.194 36.1873 140.809 36.4511C141.425 36.7149 142.06 36.9129 142.713 37.0445C143.366 37.1762 144.039 37.2422 144.732 37.2422C145.425 37.2422 146.097 37.1762 146.747 37.0445C147.398 36.9128 148.029 36.7148 148.639 36.4513C149.248 36.1878 149.819 35.8758 150.353 35.5156C150.886 35.1555 151.381 34.7475 151.836 34.2917C152.748 33.3797 153.468 32.308 153.996 31.0774C154.259 30.4619 154.458 29.8271 154.589 29.1739C154.721 28.5207 154.787 27.8472 154.787 27.1544C154.787 26.4617 154.721 25.7897 154.589 25.1391C154.457 24.4883 154.26 23.8578 153.996 23.2481C153.733 22.6389 153.421 22.0673 153.06 21.5338C152.7 21.0007 152.292 20.506 151.836 20.0503C151.381 19.5945 150.886 19.1864 150.353 18.8263C149.819 18.4661 149.248 18.1541 148.639 17.8907C148.029 17.6271 147.398 17.4292 146.748 17.2975C146.097 17.1658 145.425 17.0998 144.732 17.0998Z" fill="white"/>
<path d="M152.218 26.6331C152.043 26.5272 151.851 26.4425 151.642 26.3791C151.433 26.3156 151.233 26.2838 151.043 26.2838C150.82 26.2838 150.642 26.3248 150.507 26.4068C150.372 26.4889 150.304 26.6146 150.304 26.784C150.304 26.9534 150.38 27.0817 150.53 27.169C150.681 27.2565 150.91 27.3451 151.217 27.4351C151.508 27.5198 151.747 27.6045 151.932 27.6891C152.117 27.7738 152.275 27.8982 152.404 28.0623C152.534 28.2264 152.599 28.4434 152.599 28.7134C152.599 29.1104 152.449 29.4122 152.15 29.6186C151.851 29.825 151.479 29.9282 151.035 29.9282C150.722 29.9282 150.419 29.878 150.126 29.7773C149.832 29.6768 149.584 29.5339 149.383 29.3486L149.661 28.8087C149.836 28.9675 150.051 29.0945 150.308 29.1898C150.565 29.2851 150.815 29.3327 151.058 29.3327C151.302 29.3327 151.498 29.2877 151.646 29.1978C151.794 29.1077 151.868 28.9702 151.868 28.7849C151.868 28.5943 151.79 28.4514 151.634 28.3561C151.478 28.2608 151.241 28.1655 150.923 28.0703C150.643 27.9908 150.414 27.9101 150.237 27.8281C150.059 27.7461 149.908 27.6257 149.784 27.4668C149.66 27.308 149.597 27.1016 149.597 26.8475C149.597 26.4558 149.74 26.162 150.026 25.9661C150.312 25.7703 150.669 25.6723 151.098 25.6723C151.352 25.6723 151.602 25.7081 151.848 25.7795C152.095 25.851 152.308 25.9477 152.488 26.0694L152.218 26.6331ZM160.731 25.6803C161.149 25.6803 161.521 25.7703 161.847 25.9503C162.172 26.1303 162.426 26.3804 162.609 26.7006C162.792 27.0209 162.883 27.3875 162.883 27.8003C162.883 28.2132 162.792 28.5811 162.609 28.904C162.426 29.2268 162.172 29.4783 161.847 29.6582C161.521 29.8382 161.149 29.9282 160.731 29.9282C160.308 29.9282 159.933 29.8382 159.608 29.6582C159.282 29.4783 159.028 29.2282 158.845 28.9079C158.663 28.5876 158.571 28.2184 158.571 27.8003C158.571 27.3875 158.663 27.0209 158.845 26.7006C159.028 26.3804 159.282 26.1303 159.608 25.9503C159.933 25.7703 160.308 25.6803 160.731 25.6803ZM160.731 26.3234C160.456 26.3234 160.211 26.387 159.997 26.514C159.782 26.6411 159.615 26.8171 159.496 27.0421C159.377 27.267 159.318 27.5224 159.318 27.8082C159.318 28.0993 159.377 28.3587 159.496 28.5863C159.615 28.8139 159.782 28.99 159.997 29.1144C160.211 29.2388 160.456 29.3009 160.731 29.3009C161.001 29.3009 161.243 29.2388 161.457 29.1144C161.672 28.99 161.839 28.8139 161.958 28.5863C162.077 28.3587 162.136 28.0993 162.136 27.8082C162.136 27.5224 162.077 27.267 161.958 27.0421C161.839 26.8171 161.672 26.6411 161.457 26.514C161.243 26.387 161.001 26.3234 160.731 26.3234ZM170.84 24.6243C170.65 24.6243 170.491 24.6825 170.364 24.799C170.237 24.9154 170.173 25.0822 170.173 25.2992V25.847H171.333V26.4108H170.173V29.9044H169.435V26.4108H168.887V25.847H169.435V25.3945C169.435 25.0874 169.5 24.8267 169.63 24.6123C169.759 24.398 169.93 24.2366 170.142 24.1281C170.353 24.0196 170.581 23.9653 170.824 23.9653C171.057 23.9653 171.301 24.0288 171.555 24.1558L171.38 24.7593C171.19 24.6693 171.01 24.6243 170.84 24.6243ZM179.727 29.6265C179.404 29.8329 179.076 29.9362 178.742 29.9362C178.409 29.9362 178.139 29.8369 177.932 29.6384C177.726 29.4399 177.623 29.1395 177.623 28.7372V26.4108H177.027V25.847H177.623V24.7195H178.369V25.847H179.655V26.4108H178.369V28.6023C178.369 28.8351 178.412 29.0019 178.496 29.1025C178.581 29.203 178.708 29.2533 178.877 29.2533C179.079 29.2533 179.296 29.1872 179.528 29.0549L179.727 29.6265Z" fill="white"/>
<path d="M20.5208 20.8114C19.9931 20.788 19.4182 20.9578 18.9389 21.2688C18.4782 21.5676 18.1128 21.9933 17.9768 22.4954C17.8922 22.8077 17.7877 23.7151 17.737 24.7338C17.6972 25.5295 17.6912 26.382 17.7537 27.0592C17.9034 28.6822 18.2985 30.936 18.8304 33.1262C19.0536 34.045 19.3008 34.9512 19.5637 35.793C19.6775 35.566 19.842 35.2871 20.0327 34.9969C20.2735 34.6304 20.5128 34.3151 20.7486 34.0334C20.9836 33.7526 21.2222 33.4966 21.4582 33.2535C22.6996 31.9749 23.647 30.6475 24.1038 29.2103C24.5535 27.7954 24.5304 26.2528 23.8453 24.5139C23.3773 23.3264 22.4493 22.191 21.4137 21.3961C21.1198 21.1705 20.8192 20.9732 20.5208 20.8114ZM6.27191 20.4755C5.79101 20.2764 5.31771 20.2959 4.82978 20.4758C4.08086 20.752 3.51124 21.3474 2.97539 21.9241C1.30509 24.0166 1.47492 27.7552 1.69699 30.2008C1.83644 31.736 1.99653 33.5594 2.2638 35.0625C2.55555 36.6983 3.02312 39.3062 5.19026 39.1964C5.52337 39.1796 5.82413 39.0256 6.09862 38.7309C6.41578 38.3905 6.69965 37.87 6.95745 37.1658C7.28164 36.2805 7.86458 34.5055 8.40006 32.8071C8.98608 30.9485 9.53065 28.6809 10.3252 26.9082C10.683 26.1102 11.0886 25.2871 11.3833 24.714C11.6045 24.2839 11.8043 23.8898 12.0981 23.5085C12.5593 22.9095 13.1246 22.5356 13.8489 22.3536C13.1484 21.8908 12.4408 21.4311 11.6775 21.0782C11.05 20.788 10.3821 20.5854 9.69307 20.5413C9.34412 20.519 9.04103 20.542 8.69123 20.5905C8.24362 20.6524 7.79535 20.7383 7.35281 20.7073C6.96184 20.6797 6.65359 20.639 6.27191 20.4755ZM13.2847 20.8804C13.6082 21.0763 13.9257 21.2836 14.2414 21.4914C14.4642 21.1875 14.6905 20.8943 14.9254 20.6217C15.2112 20.2899 15.5103 19.9896 15.8311 19.7392C15.8557 19.5614 15.8807 19.3839 15.9072 19.2063C16.1426 17.6213 16.4551 16.0565 16.8052 14.4942C17.1158 13.13 17.4759 11.7345 17.8701 10.413C17.9932 10.0006 18.2314 9.39819 18.5124 8.68725C19.0026 7.4473 21.307 2.76106 19.471 1.99104C18.799 1.70933 18.0753 1.86885 17.3385 2.34459C16.5255 2.86938 15.7025 3.76591 14.9104 4.88826C13.7862 6.48072 12.735 8.51676 11.8617 10.599C11.1772 12.2311 10.6283 13.8847 10.2059 15.3732C9.88072 16.5185 9.58954 17.701 9.36109 18.8704C9.30886 19.1379 9.2645 19.3808 9.22802 19.5968L9.23542 19.5966C9.71107 19.5816 10.1475 19.6212 10.6188 19.7217C11.5999 19.9399 12.4355 20.3688 13.2847 20.8804ZM15.2215 22.764L14.8386 23.244L14.4155 23.2465C13.7734 23.2832 13.3417 23.4965 12.9237 23.9826C12.6641 24.2841 12.5033 24.5888 12.3207 24.9378C12.0343 25.4844 11.5765 26.4018 11.1788 27.2891C10.471 28.8684 10.1133 30.4468 9.60633 32.0855C10.1932 34.2235 11.7311 37.7628 13.4947 40.7693C14.885 43.1396 16.4 45.1602 17.6608 45.8444C17.8521 45.9482 18.1343 45.9936 18.3784 46.0328C18.6044 46.069 18.8064 46.1016 18.9764 46.1755C19.0593 46.2116 19.1298 46.2548 19.2106 46.3042C19.4356 46.4421 19.7922 46.6604 20.3947 46.4075C21.0171 46.1462 21.0157 45.8749 21.0139 45.5188C21.0128 45.3044 21.0116 45.0714 21.0574 44.8114C21.1474 44.302 21.0053 43.355 20.773 42.3395C20.4376 40.8743 19.918 39.3045 19.6158 38.6331C18.9916 37.2467 18.4018 35.3219 17.9219 33.346C17.3803 31.1158 16.9772 28.8113 16.8232 27.1434C16.7561 26.4155 16.7616 25.5188 16.8029 24.6899C16.8571 23.6036 16.9746 22.6133 17.072 22.2536C17.3002 21.4108 17.9324 20.7417 18.6872 20.3317C17.3996 20.4743 16.0025 21.8437 15.2215 22.764ZM9.11792 33.641C8.62943 35.1762 8.12912 36.6897 7.83672 37.4882C7.53635 38.3088 7.18851 38.9337 6.78357 39.3682C6.33606 39.8486 5.82327 40.1006 5.23415 40.1305C2.41083 40.2735 1.72559 37.3817 1.34063 35.2237C1.06895 33.6949 0.90813 31.8465 0.766523 30.2851C0.513226 27.4943 0.375557 23.6598 2.26858 21.3148C2.18071 21.0704 2.07079 20.7716 1.95479 20.4559C1.4797 19.1628 -0.506908 14.8554 1.5341 13.8609C2.96423 13.1638 4.06811 13.674 4.88502 14.0515C5.15839 14.1779 5.38926 14.2846 5.5108 14.2846C6.28316 14.2846 6.73229 14.2903 7.1903 14.4681C7.64316 14.6439 8.01753 14.9603 8.62212 15.5748C8.76964 15.7247 8.91556 15.8832 9.052 16.046C9.13087 15.7455 9.21499 15.4364 9.30464 15.1204C9.73846 13.5918 10.3001 11.8986 10.9973 10.2363C11.8929 8.10047 12.9774 6.00348 14.1448 4.34977C15.0027 3.13412 15.9117 2.15178 16.833 1.55703C17.8304 0.913143 18.8442 0.711706 19.8337 1.12659C22.5201 2.25325 20.1022 7.21548 19.3842 9.03161C19.1093 9.72717 18.8761 10.3167 18.7676 10.6804C18.3662 12.0255 18.0001 13.4536 17.6858 14.8478L17.8097 14.8854C18.3161 15.0373 18.7376 15.1641 18.9497 15.6426C19.1403 16.0432 19.0898 16.5836 19.0305 17.0175C18.951 17.5983 18.7976 18.1951 18.6478 18.7638C18.7961 18.7529 18.9493 18.7453 19.1076 18.7404C19.4441 18.73 19.7791 18.7041 20.0932 18.68C20.9947 18.6108 21.7272 18.5545 22.8994 18.8667C24.2635 19.2299 25.4036 20.2285 26.2278 21.5131C27.1114 22.8909 27.6373 24.6108 27.6822 26.2198C27.7126 27.3163 27.4122 28.5093 26.9229 29.6278C26.3831 30.8618 25.6091 32.0161 24.7971 32.8525C24.3429 33.3203 23.8986 33.6628 23.4187 34.033C22.9201 34.4174 22.3803 34.8339 21.7584 35.4554L21.7593 35.4562C21.697 35.5185 21.6414 35.5776 21.5722 35.651C21.249 35.9939 20.6934 36.5833 20.335 36.8222L20.3333 36.824C20.2036 36.9104 20.08 36.9675 19.9647 36.9891C20.1294 37.4445 20.2982 37.868 20.4694 38.2484C20.7895 38.9594 21.3361 40.6063 21.6851 42.1308C21.942 43.2537 22.0941 44.3296 21.9806 44.9725C21.9461 45.1678 21.9471 45.3487 21.9479 45.5151C21.9516 46.2272 21.9544 46.7696 20.7574 47.2719C19.7143 47.7098 19.1067 47.3378 18.7233 47.1029C18.6698 47.0701 18.623 47.0414 18.6028 47.0326C18.5406 47.0056 18.3947 46.9821 18.2319 46.956C17.9098 46.9042 17.5375 46.8443 17.2139 46.6688C15.7911 45.8968 14.1566 43.7443 12.6887 41.2419C11.2082 38.718 9.88082 35.8182 9.11792 33.641ZM5.54419 19.3961L6.45535 19.5488C6.38614 19.0804 5.89605 18.3798 5.28527 17.4162C4.79555 16.6404 4.24712 15.8989 3.69608 15.4322C3.33512 15.1266 2.98102 14.9486 2.66246 14.9904C2.5352 15.0071 2.37933 15.0616 2.30553 15.1744C1.80728 15.9437 2.84392 18.4524 3.16493 19.3949C3.25073 19.6474 3.28618 19.7461 3.43538 20.1855C4.0532 19.7323 4.76798 19.4093 5.54419 19.3961ZM7.65581 19.7605C7.85537 19.75 8.05831 19.7253 8.26387 19.6995C8.30898 19.4067 8.36817 19.0668 8.44169 18.691C8.52712 18.2539 8.63159 17.7644 8.75519 17.237C8.42518 16.6597 7.40364 15.5536 6.85325 15.3399C6.5601 15.2261 6.17635 15.2224 5.5108 15.2224C5.19429 15.2224 4.88285 15.0816 4.51665 14.9122C5.69104 16.0303 6.72271 17.9656 7.469 19.4026L7.65581 19.7605ZM20.1272 19.6167C21.2205 19.998 22.3466 20.8563 23.123 21.6989C23.8002 22.4342 24.3687 23.2892 24.7171 24.1733C25.4869 26.1271 25.5078 27.8759 24.994 29.4923C24.5122 31.0081 23.5623 32.3889 22.3226 33.7028C22.5032 33.5583 22.6775 33.4239 22.8472 33.2931C23.299 32.9445 23.7172 32.6221 24.1267 32.2004C24.865 31.44 25.5709 30.3855 26.0658 29.2541C26.5047 28.2509 26.7746 27.1955 26.7481 26.2455C26.7079 24.8023 26.235 23.2578 25.4402 22.0186C24.7346 20.9187 23.78 20.0693 22.6612 19.7715C21.7314 19.5239 21.0674 19.5448 20.1272 19.6167ZM17.3002 18.9897C17.4028 18.9598 17.5067 18.9332 17.6109 18.9098C17.6642 18.5891 17.76 18.2183 17.8581 17.8381C17.9765 17.3806 18.1592 16.7844 18.1443 16.3119C17.7912 16.7237 17.5079 17.9569 17.3002 18.9897Z" fill="white"/>
</svg>
