<svg width="71" height="29" viewBox="0 0 71 29" fill="none" xmlns="http://www.w3.org/2000/svg">
<path d="M4.99219 5H6.91219V17.26H13.0322V19H4.99219V5ZM15.4805 5H17.4005V19H15.4805V5ZM27.3784 5C28.8051 5 29.9251 5.31333 30.7384 5.94C31.5651 6.55333 31.9784 7.40667 31.9784 8.5C31.9784 9.3 31.7518 9.98 31.2984 10.54C30.8451 11.0867 30.2251 11.4533 29.4384 11.64C30.4118 11.7867 31.1718 12.18 31.7184 12.82C32.2784 13.4467 32.5584 14.2333 32.5584 15.18C32.5584 16.38 32.1051 17.32 31.1984 18C30.3051 18.6667 29.0651 19 27.4784 19H21.3984V5H27.3784ZM27.2784 10.94C28.1451 10.94 28.8118 10.76 29.2784 10.4C29.7584 10.0267 29.9984 9.5 29.9984 8.82C29.9984 8.15333 29.7584 7.64 29.2784 7.28C28.8118 6.92 28.1451 6.74667 27.2784 6.76H23.3184V10.94H27.2784ZM27.2784 17.24C28.3184 17.2533 29.1318 17.06 29.7184 16.66C30.3051 16.2467 30.5984 15.6733 30.5984 14.94C30.5984 14.2333 30.3051 13.68 29.7184 13.28C29.1318 12.88 28.3184 12.68 27.2784 12.68H23.3184V17.24H27.2784ZM35.6367 5H37.5567V19H35.6367V5ZM47.2547 5C48.6147 5 49.8414 5.30667 50.9347 5.92C52.0414 6.52 52.908 7.35333 53.5347 8.42C54.1614 9.48667 54.4747 10.68 54.4747 12C54.4747 13.32 54.1547 14.5133 53.5147 15.58C52.888 16.6467 52.0214 17.4867 50.9147 18.1C49.808 18.7 48.568 19 47.1947 19H41.5547V5H47.2547ZM47.2947 17.26C48.268 17.26 49.148 17.0333 49.9347 16.58C50.7347 16.1267 51.3614 15.5 51.8147 14.7C52.2814 13.9 52.5147 13.0067 52.5147 12.02C52.5147 11.02 52.2814 10.12 51.8147 9.32C51.348 8.52 50.708 7.89333 49.8947 7.44C49.0947 6.97333 48.2014 6.74 47.2147 6.74H43.4747V17.26H47.2947ZM62.8895 4.88C64.2362 4.88 65.4695 5.19333 66.5895 5.82C67.7229 6.44667 68.6162 7.30667 69.2695 8.4C69.9229 9.48 70.2495 10.6733 70.2495 11.98C70.2495 13.2867 69.9229 14.4933 69.2695 15.6C68.6162 16.6933 67.7229 17.56 66.5895 18.2C65.4695 18.8267 64.2362 19.14 62.8895 19.14C61.5429 19.14 60.3029 18.8267 59.1695 18.2C58.0495 17.56 57.1629 16.6933 56.5095 15.6C55.8562 14.4933 55.5295 13.2867 55.5295 11.98C55.5295 10.6733 55.8562 9.48 56.5095 8.4C57.1629 7.30667 58.0495 6.44667 59.1695 5.82C60.2895 5.19333 61.5295 4.88 62.8895 4.88ZM62.9095 6.6C61.9362 6.6 61.0295 6.84 60.1895 7.32C59.3629 7.8 58.7029 8.45333 58.2095 9.28C57.7162 10.0933 57.4695 10.9933 57.4695 11.98C57.4695 12.9667 57.7162 13.8733 58.2095 14.7C58.7029 15.5267 59.3629 16.1867 60.1895 16.68C61.0295 17.16 61.9362 17.4 62.9095 17.4C63.8829 17.4 64.7762 17.16 65.5895 16.68C66.4162 16.1867 67.0695 15.5267 67.5495 14.7C68.0429 13.8733 68.2895 12.9667 68.2895 11.98C68.2895 10.9933 68.0429 10.0933 67.5495 9.28C67.0695 8.45333 66.4162 7.8 65.5895 7.32C64.7762 6.84 63.8829 6.6 62.9095 6.6ZM56.5676 23.88C56.3476 23.7467 56.1042 23.64 55.8376 23.56C55.5776 23.48 55.3276 23.44 55.0876 23.44C54.8076 23.44 54.5809 23.4933 54.4076 23.6C54.2409 23.7 54.1576 23.8567 54.1576 24.07C54.1576 24.2833 54.2509 24.4467 54.4376 24.56C54.6309 24.6667 54.9209 24.7767 55.3076 24.89C55.6742 24.9967 55.9742 25.1033 56.2076 25.21C56.4409 25.3167 56.6376 25.4733 56.7976 25.68C56.9642 25.8867 57.0476 26.16 57.0476 26.5C57.0476 27 56.8576 27.38 56.4776 27.64C56.1042 27.9 55.6376 28.03 55.0776 28.03C54.6842 28.03 54.3009 27.9667 53.9276 27.84C53.5609 27.7133 53.2509 27.5333 52.9976 27.3L53.3476 26.62C53.5676 26.82 53.8376 26.98 54.1576 27.1C54.4842 27.22 54.8009 27.28 55.1076 27.28C55.4142 27.28 55.6609 27.2233 55.8476 27.11C56.0342 26.9967 56.1276 26.8233 56.1276 26.59C56.1276 26.35 56.0276 26.17 55.8276 26.05C55.6342 25.93 55.3376 25.81 54.9376 25.69C54.5842 25.59 54.2942 25.49 54.0676 25.39C53.8476 25.2833 53.6576 25.13 53.4976 24.93C53.3442 24.73 53.2676 24.47 53.2676 24.15C53.2676 23.6567 53.4476 23.2867 53.8076 23.04C54.1676 22.7933 54.6176 22.67 55.1576 22.67C55.4776 22.67 55.7909 22.7167 56.0976 22.81C56.4109 22.8967 56.6809 23.0167 56.9076 23.17L56.5676 23.88ZM60.4772 22.68C61.0039 22.68 61.4705 22.7933 61.8772 23.02C62.2905 23.2467 62.6105 23.5633 62.8372 23.97C63.0705 24.37 63.1872 24.83 63.1872 25.35C63.1872 25.87 63.0705 26.3333 62.8372 26.74C62.6105 27.1467 62.2905 27.4633 61.8772 27.69C61.4705 27.9167 61.0039 28.03 60.4772 28.03C59.9439 28.03 59.4705 27.9167 59.0572 27.69C58.6505 27.4633 58.3305 27.15 58.0972 26.75C57.8705 26.3433 57.7572 25.8767 57.7572 25.35C57.7572 24.83 57.8705 24.37 58.0972 23.97C58.3305 23.5633 58.6505 23.2467 59.0572 23.02C59.4705 22.7933 59.9439 22.68 60.4772 22.68ZM60.4772 23.49C60.1305 23.49 59.8205 23.57 59.5472 23.73C59.2805 23.89 59.0705 24.1133 58.9172 24.4C58.7705 24.68 58.6972 25 58.6972 25.36C58.6972 25.7267 58.7705 26.0533 58.9172 26.34C59.0705 26.6267 59.2805 26.85 59.5472 27.01C59.8205 27.1633 60.1305 27.24 60.4772 27.24C60.8172 27.24 61.1205 27.1633 61.3872 27.01C61.6605 26.85 61.8705 26.6267 62.0172 26.34C62.1705 26.0533 62.2472 25.7267 62.2472 25.36C62.2472 25 62.1705 24.68 62.0172 24.4C61.8705 24.1133 61.6605 23.89 61.3872 23.73C61.1205 23.57 60.8172 23.49 60.4772 23.49ZM66.3991 21.35C66.1591 21.35 65.9591 21.4233 65.7991 21.57C65.6391 21.7167 65.5591 21.9267 65.5591 22.2V22.89H67.0191V23.6H65.5591V28H64.6291V23.6H63.9391V22.89H64.6291V22.32C64.6291 21.9333 64.7091 21.6067 64.8691 21.34C65.0357 21.0667 65.2524 20.8633 65.5191 20.73C65.7857 20.59 66.0724 20.52 66.3791 20.52C66.6724 20.52 66.9791 20.6 67.2991 20.76L67.0791 21.52C66.8391 21.4067 66.6124 21.35 66.3991 21.35ZM70.7754 27.65C70.3687 27.91 69.9554 28.04 69.5354 28.04C69.1154 28.04 68.7754 27.9167 68.5154 27.67C68.2554 27.4167 68.1254 27.0367 68.1254 26.53V23.6H67.3754V22.89H68.1254V21.47H69.0654V22.89H70.6854V23.6H69.0654V26.36C69.0654 26.6533 69.1187 26.8633 69.2254 26.99C69.3321 27.1167 69.4921 27.18 69.7054 27.18C69.9587 27.18 70.2321 27.0967 70.5254 26.93L70.7754 27.65Z" fill="black"/>
<path d="M1 23.5H50" stroke="black"/>
<path d="M1 26.5L43 27" stroke="black"/>
</svg>
