<?xml version="1.0"?>
<svg xmlns="http://www.w3.org/2000/svg" id="Capa_1" enable-background="new 0 0 512 512" height="29px" viewBox="0 0 512 512" width="33px"><g><path d="m469.038 413.745c10.487-10.809 16.962-25.531 16.962-41.745 0-27.906-19.151-51.424-45-58.101v-47.899c0-8.284-6.716-15-15-15h-155v-31h55c8.284 0 15-6.716 15-15v-30c0-31.171-16.877-58.461-41.962-73.255 10.487-10.809 16.962-25.531 16.962-41.745 0-33.084-26.916-60-60-60s-60 26.916-60 60c0 16.214 6.475 30.936 16.963 41.745-25.086 14.794-41.963 42.084-41.963 73.255v30c0 8.284 6.716 15 15 15h55v31h-155c-8.284 0-15 6.716-15 15v47.899c-25.849 6.677-45 30.195-45 58.101 0 16.214 6.475 30.936 16.963 41.745-25.086 14.794-41.963 42.084-41.963 73.255v10c0 8.284 6.716 15 15 15h140c8.284 0 15-6.716 15-15 0 8.284 6.716 15 15 15h140c8.284 0 15-6.716 15-15 0 8.284 6.716 15 15 15h140c8.284 0 15-6.716 15-15v-10c0-31.171-16.877-58.461-41.962-73.255zm-243.038-353.745c0-16.542 13.458-30 30-30s30 13.458 30 30-13.458 30-30 30-30-13.458-30-30zm-25 115c0-30.327 24.673-55 55-55s55 24.673 55 55v15h-110zm255 197c0 16.542-13.458 30-30 30s-30-13.458-30-30 13.458-30 30-30 30 13.458 30 30zm-200 30c-16.542 0-30-13.458-30-30s13.458-30 30-30 30 13.458 30 30-13.458 30-30 30zm-200-30c0-16.542 13.458-30 30-30s30 13.458 30 30-13.458 30-30 30-30-13.458-30-30zm-24.774 110c2.533-27.994 26.132-50 54.774-50s52.241 22.006 54.774 50zm139.774 5c0-31.171-16.877-58.461-41.963-73.255 10.488-10.809 16.963-25.531 16.963-41.745 0-27.906-19.151-51.424-45-58.101v-32.899h140v32.899c-25.849 6.677-45 30.195-45 58.101 0 16.214 6.475 30.936 16.963 41.745-25.086 14.794-41.963 42.084-41.963 73.255zm30.226-5c2.533-27.994 26.132-50 54.774-50s52.241 22.006 54.774 50zm139.774 5c0-31.171-16.877-58.461-41.962-73.255 10.487-10.809 16.962-25.531 16.962-41.745 0-27.906-19.151-51.424-45-58.101v-32.899h140v32.899c-25.849 6.677-45 30.195-45 58.101 0 16.214 6.475 30.936 16.962 41.745-25.085 14.794-41.962 42.084-41.962 73.255zm30.226-5c2.533-27.994 26.132-50 54.774-50s52.241 22.006 54.774 50z" data-original="#000000" class="active-path" data-old_color="#000000" fill="#E1A200"/></g> </svg>
