<svg width="85" height="71" viewBox="0 0 85 71" fill="none" xmlns="http://www.w3.org/2000/svg">
<rect x="1.3335" y="0.999634" width="81.9999" height="48.6666" rx="5" stroke="#E1A200" stroke-width="2"/>
<rect x="1.33252" y="64.9996" width="81.9999" height="4.66666" rx="2.33333" stroke="#E1A200" stroke-width="2"/>
<path d="M24.666 9.99957C24.666 9.44729 24.2183 8.99957 23.666 8.99957C23.1137 8.99957 22.666 9.44729 22.666 9.99957H24.666ZM23.666 39.3329H22.666C22.666 39.8852 23.1137 40.3329 23.666 40.3329V39.3329ZM60.9993 40.3329C61.5516 40.3329 61.9993 39.8852 61.9993 39.3329C61.9993 38.7806 61.5516 38.3329 60.9993 38.3329V40.3329ZM28.9502 28.944C28.9502 28.3917 28.5024 27.944 27.9502 27.944C27.3979 27.944 26.9502 28.3917 26.9502 28.944H28.9502ZM37.1305 19.7773L37.8371 19.0697C37.4467 18.6799 36.8143 18.6799 36.4239 19.0697L37.1305 19.7773ZM55.2671 16.1107C55.2671 15.5584 54.8194 15.1107 54.2671 15.1107C53.7148 15.1107 53.2671 15.5584 53.2671 16.1107H55.2671ZM57.9392 12.444H58.9392C58.9392 11.8917 58.4915 11.444 57.9392 11.444V12.444ZM52.431 11.444C51.8787 11.444 51.431 11.8917 51.431 12.444C51.431 12.9963 51.8787 13.444 52.431 13.444V11.444ZM56.9392 17.944C56.9392 18.4963 57.3869 18.944 57.9392 18.944C58.4915 18.944 58.9392 18.4963 58.9392 17.944H56.9392ZM23.666 40.3329H27.9502V38.3329H23.666V40.3329ZM28.9502 39.3329V28.944H26.9502V39.3329H28.9502ZM27.9502 40.3329H37.1305V38.3329H27.9502V40.3329ZM38.1305 39.3329V19.7773H36.1305V39.3329H38.1305ZM37.1305 40.3329H43.8627V38.3329H37.1305V40.3329ZM44.8627 39.3329V26.4996H42.8627V39.3329H44.8627ZM43.8627 40.3329H54.2671V38.3329H43.8627V40.3329ZM54.2671 40.3329H60.9993V38.3329H54.2671V40.3329ZM55.2671 39.3329V16.1107H53.2671V39.3329H55.2671ZM22.666 9.99957V33.2218H24.666V9.99957H22.666ZM22.666 33.2218V39.3329H24.666V33.2218H22.666ZM24.3726 33.9294L37.8371 20.485L36.4239 19.0697L22.9594 32.5141L24.3726 33.9294ZM36.4239 20.485L43.1561 27.2072L44.5693 25.7919L37.8371 19.0697L36.4239 20.485ZM44.5693 27.2072L58.6458 13.1516L57.2326 11.7364L43.1561 25.7919L44.5693 27.2072ZM57.9392 11.444H52.431V13.444H57.9392V11.444ZM56.9392 12.444V17.944H58.9392V12.444H56.9392Z" fill="#E1A200"/>
</svg>
