<svg width="76" height="76" viewBox="0 0 76 76" fill="none" xmlns="http://www.w3.org/2000/svg">
<mask id="path-1-outside-1" maskUnits="userSpaceOnUse" x="7" y="7" width="69" height="69" fill="black">
<rect fill="white" x="7" y="7" width="69" height="69"/>
<path d="M9 15C9 11.6863 11.6863 9 15 9H68C71.3137 9 74 11.6863 74 15V59C74 62.3137 71.3137 65 68 65H15C11.6863 65 9 62.3137 9 59V15Z"/>
<path d="M9 73.5V58L20.5 63L9 73.5Z"/>
</mask>
<path d="M9 58L9.79745 56.1659C9.17922 55.8971 8.46716 55.9578 7.90339 56.3274C7.33962 56.6971 7 57.3259 7 58H9ZM9 73.5H7C7 74.2924 7.46784 75.0101 8.19287 75.3299C8.91789 75.6497 9.76335 75.5113 10.3485 74.977L9 73.5ZM20.5 63L21.8485 64.477C22.3492 64.0199 22.5842 63.3403 22.4729 62.6716C22.3616 62.003 21.9191 61.4362 21.2975 61.1659L20.5 63ZM15 11H68V7H15V11ZM72 15V59H76V15H72ZM68 63H15V67H68V63ZM11 59V15H7V59H11ZM15 63C12.7909 63 11 61.2091 11 59H7C7 63.4183 10.5817 67 15 67V63ZM72 59C72 61.2091 70.2091 63 68 63V67C72.4183 67 76 63.4183 76 59H72ZM68 11C70.2091 11 72 12.7909 72 15H76C76 10.5817 72.4183 7 68 7V11ZM15 7C10.5817 7 7 10.5817 7 15H11C11 12.7909 12.7909 11 15 11V7ZM7 58V73.5H11V58H7ZM10.3485 74.977L21.8485 64.477L19.1515 61.523L7.65146 72.023L10.3485 74.977ZM21.2975 61.1659L9.79745 56.1659L8.20255 59.8341L19.7025 64.8341L21.2975 61.1659Z" fill="#E1A200" mask="url(#path-1-outside-1)"/>
<path d="M1 65.5H0C0 65.8962 0.233922 66.2551 0.596434 66.4149C0.958946 66.5748 1.38167 66.5056 1.67427 66.2385L1 65.5ZM8.67427 59.8472C9.08212 59.4748 9.11087 58.8423 8.73849 58.4344C8.3661 58.0266 7.73358 57.9978 7.32573 58.3702L8.67427 59.8472ZM65 8C65 8.55228 65.4477 9 66 9C66.5523 9 67 8.55228 67 8H65ZM7 2H60V0H7V2ZM2 51V50H0V51H2ZM2 50V7H0V50H2ZM60 2C62.7614 2 65 4.23858 65 7H67C67 3.13401 63.866 0 60 0V2ZM7 0C3.13401 0 0 3.13401 0 7H2C2 4.23858 4.23858 2 7 2V0ZM0 51V65.5H2V51H0ZM1.67427 66.2385L8.67427 59.8472L7.32573 58.3702L0.325731 64.7615L1.67427 66.2385ZM65 7V8H67V7H65Z" fill="#E1A200"/>
<circle cx="42" cy="37" r="5" stroke="#E1A200" stroke-width="2"/>
<path d="M56.9724 37C56.9724 35.9696 56.8685 34.9635 56.6706 33.9915C56.7301 33.9622 56.7891 33.9308 56.8473 33.8971L59.4454 32.3971C60.8803 31.5687 61.3719 29.7339 60.5435 28.299L59.0435 25.701C58.2151 24.2661 56.3803 23.7745 54.9454 24.6029L52.3473 26.1029C52.3335 26.1109 52.3197 26.119 52.306 26.1272C50.7934 24.6892 48.9811 23.5635 46.9724 22.8535V20C46.9724 18.3431 45.6292 17 43.9724 17H40.9724C39.3155 17 37.9724 18.3431 37.9724 20V22.5392C35.7376 23.156 33.7119 24.277 32.0255 25.7721L30.0003 24.6029C28.5655 23.7745 26.7307 24.2661 25.9023 25.701L24.4023 28.299C23.5738 29.7339 24.0655 31.5687 25.5003 32.3971L27.3863 33.486C27.1157 34.6131 26.9724 35.7898 26.9724 37C26.9724 38.2102 27.1157 39.3869 27.3863 40.5141L25.5005 41.6029C24.0657 42.4313 23.574 44.2661 24.4025 45.701L25.9025 48.299C26.7309 49.7339 28.5657 50.2255 30.0005 49.3971L32.0256 48.2279C33.712 49.723 35.7376 50.844 37.9724 51.4608V54C37.9724 55.6569 39.3155 57 40.9724 57H43.9724C45.6292 57 46.9724 55.6569 46.9724 54V51.1465C48.981 50.4365 50.7933 49.3109 52.3059 47.8729C52.3195 47.881 52.3333 47.8891 52.3471 47.8971L54.9452 49.3971C56.3801 50.2255 58.2148 49.7339 59.0433 48.299L60.5433 45.701C61.3717 44.2661 60.8801 42.4313 59.4452 41.6029L56.8471 40.1029C56.7889 40.0693 56.73 40.0378 56.6706 40.0085C56.8685 39.0366 56.9724 38.0304 56.9724 37Z" stroke="#E1A200" stroke-width="2"/>
</svg>
