<svg width="88" height="79" viewBox="0 0 88 79" fill="none" xmlns="http://www.w3.org/2000/svg">
<path d="M57.1424 49.3329H28.5893H6.33398C3.57256 49.3329 1.33398 47.0944 1.33398 44.3329V6.33298C1.33398 3.57155 3.57256 1.33298 6.33398 1.33298H77.6673C80.4287 1.33298 82.6673 3.57155 82.6673 6.33298V42.175" stroke="#E1A200" stroke-width="2" stroke-linecap="round" stroke-linejoin="round"/>
<path d="M56.6198 63.9996H28.5447H4.66683C2.82588 63.9996 1.3335 65.492 1.3335 67.333V67.333C1.3335 69.1739 2.82588 70.6663 4.66683 70.6663H62.6668" stroke="#E1A200" stroke-width="2" stroke-linecap="round" stroke-linejoin="round"/>
<path d="M17.3335 31.4506C18.6298 30.3003 22.2594 27.9996 26.4076 27.9996C31.5927 27.9996 36.7779 33.1761 41.531 33.1761C46.2841 33.1761 52.3335 27.9996 56.6544 27.9996C60.1112 27.9996 62.9919 30.3003 64.0001 31.4506M32.4569 38.7839C34.3294 40.078 38.7656 42.6663 41.531 42.6663C44.2964 42.6663 48.1565 40.078 49.7409 38.7839" stroke="#E1A200" stroke-width="2" stroke-linecap="round" stroke-linejoin="round"/>
<rect x="61" y="40.9997" width="26" height="36.6666" rx="13" stroke="#E1A200" stroke-width="2" stroke-linecap="round" stroke-linejoin="round"/>
<rect x="72" y="47.9996" width="4" height="7.99999" rx="2" fill="#E1A200"/>
<path d="M57.3333 27.9997C57.3333 19.8995 50.7668 13.333 42.6667 13.333C34.5665 13.333 28 19.8995 28 27.9997" stroke="#E1A200" stroke-width="2" stroke-linecap="round" stroke-linejoin="round"/>
</svg>
