<svg width="57" height="57" viewBox="0 0 57 57" fill="none" xmlns="http://www.w3.org/2000/svg">
<mask id="path-1-outside-1" maskUnits="userSpaceOnUse" x="6" y="6" width="51" height="52" fill="black">
<rect fill="white" x="6" y="6" width="51" height="52"/>
<path d="M8 14.6465C8 10.9757 10.946 8 14.58 8H48.42C52.054 8 55 10.9757 55 14.6465V41.2323C55 44.9031 52.054 47.8788 48.42 47.8788H14.58C10.946 47.8788 8 44.9031 8 41.2323V14.6465Z"/>
<path d="M8 55V41.7071L15.52 47.404L8 55Z"/>
</mask>
<path d="M8 41.7071L9.20772 40.1129C8.6025 39.6544 7.78984 39.5781 7.1099 39.9161C6.42995 40.254 6 40.9478 6 41.7071H8ZM8 55H6C6 55.8108 6.48946 56.5413 7.23928 56.8497C7.98909 57.1581 8.8509 56.9833 9.4213 56.4071L8 55ZM15.52 47.404L16.9413 48.8111C17.3468 48.4016 17.5559 47.837 17.515 47.2621C17.474 46.6872 17.1871 46.1579 16.7277 45.8099L15.52 47.404ZM14.58 10H48.42V6H14.58V10ZM53 14.6465V41.2323H57V14.6465H53ZM48.42 45.8788H14.58V49.8788H48.42V45.8788ZM10 41.2323V14.6465H6V41.2323H10ZM14.58 45.8788C12.0694 45.8788 10 43.8175 10 41.2323H6C6 45.9886 9.82249 49.8788 14.58 49.8788V45.8788ZM53 41.2323C53 43.8175 50.9306 45.8788 48.42 45.8788V49.8788C53.1775 49.8788 57 45.9886 57 41.2323H53ZM48.42 10C50.9306 10 53 12.0613 53 14.6465H57C57 9.89015 53.1775 6 48.42 6V10ZM14.58 6C9.82249 6 6 9.89015 6 14.6465H10C10 12.0613 12.0694 10 14.58 10V6ZM6 41.7071V55H10V41.7071H6ZM9.4213 56.4071L16.9413 48.8111L14.0987 45.997L6.5787 53.5929L9.4213 56.4071ZM16.7277 45.8099L9.20772 40.1129L6.79228 43.3013L14.3123 48.9982L16.7277 45.8099Z" fill="#141520" mask="url(#path-1-outside-1)"/>
<path d="M1 47H0C0 47.388 0.22446 47.741 0.575845 47.9056C0.927229 48.0702 1.3421 48.0166 1.64018 47.7682L1 47ZM7.64018 42.7682C8.06446 42.4147 8.12179 41.7841 7.76822 41.3598C7.41466 40.9355 6.78409 40.8782 6.35982 41.2318L7.64018 42.7682ZM7.58 2H41.42V0H7.58V2ZM2 33.0606V7.50505H0V33.0606H2ZM41.42 2C44.5126 2 47 4.47547 47 7.50505H49C49 3.34936 45.5955 0 41.42 0V2ZM7.58 0C3.40451 0 0 3.34936 0 7.50505H2C2 4.47547 4.48742 2 7.58 2V0ZM0 33.0606V47H2V33.0606H0ZM1.64018 47.7682L7.64018 42.7682L6.35982 41.2318L0.359816 46.2318L1.64018 47.7682Z" fill="#141520"/>
<circle cx="32" cy="28" r="4" stroke="#141520" stroke-width="2"/>
<path d="M42.6116 25.7451C42.7601 26.4736 42.838 27.2277 42.838 28C42.838 28.7724 42.7601 29.5265 42.6116 30.255L45.0298 31.6457C45.9562 32.1785 46.2766 33.362 45.7394 34.289L44.3339 36.7139C43.798 37.6385 42.6145 37.9524 41.6903 37.4209L39.3916 36.0989C38.2476 37.2014 36.8709 38.0653 35.3423 38.6106V41.0667C35.3423 42.1381 34.4715 43 33.4054 43H30.5945C29.5284 43 28.6575 42.1381 28.6575 41.0667V38.8994C26.9162 38.4447 25.3384 37.5865 24.0311 36.431L22.3097 37.4209L21.8112 36.5541L22.3097 37.4209C21.3855 37.9525 20.202 37.6386 19.6661 36.7139L18.2606 34.289L19.1258 33.7876L18.2606 34.289C17.7234 33.3621 18.0438 32.1786 18.9702 31.6458M42.6116 25.7451L20.8541 31.7159C20.7414 31.3943 20.6429 31.066 20.5594 30.7318M42.6116 25.7451L45.0299 24.3543C45.9563 23.8215 46.2768 22.638 45.7395 21.711L44.334 19.2861C43.7981 18.3615 42.6146 18.0476 41.6904 18.5791L39.3916 19.9012C38.2477 18.7987 36.8709 17.9347 35.3423 17.3894V14.9333C35.3423 13.8619 34.4715 13 33.4054 13H30.5945C29.5284 13 28.6575 13.8619 28.6575 14.9333V17.1006C26.9162 17.5553 25.3383 18.4135 24.031 19.5691L22.3096 18.5791C21.3854 18.0475 20.2019 18.3614 19.666 19.2861L18.2605 21.711C17.7232 22.6379 18.0437 23.8214 18.9701 24.3542L20.5594 25.2682C20.3408 26.1428 20.2248 27.0578 20.2248 28C20.2248 28.9422 20.3408 29.8573 20.5594 30.7318M18.9702 31.6458L19.4688 32.5126L18.9702 31.6458L18.9702 31.6458ZM18.9702 31.6458L20.5594 30.7318M20.5594 30.7318L21.4045 30.2458C21.4245 30.2343 21.4446 30.2232 21.4648 30.2125" stroke="#141520" stroke-width="2"/>
</svg>
