<svg viewBox="0 0 76 77" fill="none" xmlns="http://www.w3.org/2000/svg">
<g id="Group 15">
<path id="Vector (Stroke)" fill-rule="evenodd" clip-rule="evenodd" d="M0.767792 64.5406C0.29928 64.3211 0 63.8505 0 63.3331V10.6732C0 5.13232 4.53935 0.666519 10.1067 0.666519H55.2266C60.1081 0.666519 64.1992 4.09977 65.1332 8.68069C71.2075 8.98198 75.9999 14.0456 75.9999 20.1951V55.6429C75.9999 61.9846 70.9033 67.1715 64.5599 67.1715H21.1791L12.5617 75.8759C11.8012 76.6441 10.6521 76.8772 9.65236 76.466C8.65261 76.0548 7.99999 75.0808 7.99999 73.9998V59.5132L2.18691 64.3574C1.78947 64.6886 1.2363 64.76 0.767792 64.5406ZM10.6667 73.9998L20.0667 64.5048H64.5599C69.4053 64.5048 73.3333 60.5372 73.3333 55.6429V20.1951C73.3333 15.3008 69.4053 11.3332 64.5599 11.3332H19.44C14.5946 11.3332 10.6667 15.3008 10.6667 20.1951V55.6429C10.6667 55.8467 10.6735 56.0489 10.6869 56.2492C10.6875 56.2581 10.6881 56.267 10.6887 56.2759C10.6891 56.2818 10.6895 56.2877 10.6899 56.2935L10.6667 56.2759V56.6563C10.6667 56.6626 10.6667 56.6689 10.6667 56.6752V73.9998ZM8.00655 56.0365C8.00219 55.9058 7.99999 55.7746 7.99999 55.6429V20.1951C7.99999 13.8534 13.0966 8.66651 19.44 8.66651H62.3848C61.5012 5.59555 58.6405 3.33318 55.2266 3.33318H10.1067C5.98322 3.33318 2.66666 6.6338 2.66666 10.6732V60.4864L8.00655 56.0365Z" fill="#E1A200"/>
<circle id="Ellipse 2" cx="42.6665" cy="37.9998" r="5" stroke-width="2"/>
<path id="Vector (Stroke)_2" fill-rule="evenodd" clip-rule="evenodd" d="M55.7202 36.6778C55.7621 37.1129 55.7835 37.5539 55.7835 37.9998C55.7835 38.4458 55.7621 38.8868 55.7202 39.3219C55.6306 40.2536 55.4472 41.1582 55.1795 42.0259C55.4887 41.9431 55.8295 41.9779 56.1287 42.1499L59.3744 44.0166C59.9719 44.3603 60.1767 45.1213 59.8317 45.7166L57.9578 48.9497C57.6128 49.5449 56.8487 49.7489 56.2512 49.4052L53.0055 47.5385C52.751 47.3922 52.5677 47.1701 52.4679 46.9173C51.8726 47.6073 51.2095 48.2375 50.4889 48.7976C49.7735 49.3539 49.0013 49.841 48.1825 50.2492C47.392 50.6432 46.558 50.9635 45.6897 51.2011C45.7537 51.3508 45.7892 51.5156 45.7892 51.6887V55.422C45.7892 56.1093 45.2299 56.6665 44.5399 56.6665H40.7921C40.1021 56.6665 39.5428 56.1093 39.5428 55.422V51.6887C39.5428 51.6129 39.5496 51.5387 39.5626 51.4666C38.6733 51.3052 37.8138 51.0586 36.993 50.7355C36.0568 50.367 35.171 49.899 34.3487 49.3446C33.6951 48.904 33.0816 48.4088 32.5148 47.8656C32.4206 47.7753 32.3277 47.6837 32.2361 47.5908L29.081 49.4053C28.4835 49.7489 27.7195 49.545 27.3745 48.9498L25.5006 45.7166C25.1556 45.1214 25.3603 44.3603 25.9578 44.0167L28.9833 42.2767C28.8731 41.9429 28.7756 41.6035 28.6911 41.2589C28.5576 40.7144 28.4568 40.157 28.3909 39.5891C28.3303 39.0677 28.2992 38.5374 28.2992 37.9998C28.2992 37.4623 28.3303 36.932 28.3908 36.4106C28.4568 35.8425 28.5576 35.285 28.6912 34.7402C28.7757 34.3959 28.8732 34.0566 28.9832 33.723L25.9577 31.983C25.3601 31.6394 25.1554 30.8783 25.5004 30.2831L27.3743 27.0499C27.7193 26.4547 28.4833 26.2508 29.0809 26.5944L32.236 28.409C32.3275 28.3162 32.4203 28.2246 32.5144 28.1345C33.0813 27.5911 33.6949 27.0959 34.3486 26.6551C35.1709 26.1007 36.0568 25.6327 36.993 25.2642C37.8138 24.9411 38.6733 24.6944 39.5626 24.5331C39.5496 24.461 39.5428 24.3868 39.5428 24.311V20.5776C39.5428 19.8903 40.1021 19.3332 40.7921 19.3332H44.5399C45.2299 19.3332 45.7892 19.8903 45.7892 20.5776V24.311C45.7892 24.484 45.7538 24.6488 45.6897 24.7986C46.558 25.0362 47.392 25.3565 48.1825 25.7505C49.0013 26.1586 49.7735 26.6459 50.4891 27.2021C51.2097 27.7623 51.8727 28.3925 52.468 29.0825C52.5678 28.8297 52.7511 28.6075 53.0056 28.4611L56.2514 26.5945C56.8489 26.2508 57.6129 26.4548 57.9579 27.05L59.8319 30.2831C60.1768 30.8783 59.9721 31.6394 59.3746 31.9831L56.1289 33.8497C55.8296 34.0218 55.4887 34.0566 55.1795 33.9737C55.4472 34.8415 55.6306 35.746 55.7202 36.6778ZM58.2871 35.6847C58.3946 36.4409 58.4502 37.2138 58.4502 37.9998C58.4502 38.7859 58.3946 39.5588 58.2871 40.3151L60.7039 41.705C62.5769 42.7822 63.2266 45.1771 62.1388 47.0538L60.2649 50.2869C59.1807 52.1575 56.7887 52.7906 54.9218 51.7168L52.6973 50.4375C51.4345 51.5132 50.0062 52.4011 48.4559 53.0581V55.422C48.4559 57.5918 46.6929 59.3331 44.5399 59.3331H40.7921C38.6391 59.3331 36.8761 57.5918 36.8761 55.422V53.5283C35.0561 52.927 33.3769 52.0167 31.9015 50.8594L30.4105 51.7169C28.5435 52.7906 26.1515 52.1576 25.0673 50.287L23.1934 47.0538C22.1057 45.1771 22.7554 42.7822 24.6284 41.705L25.9027 40.9721C25.7253 40.0084 25.6326 39.015 25.6326 37.9998C25.6326 36.9847 25.7253 35.9913 25.9027 35.0276L24.6282 34.2946C22.7552 33.2175 22.1055 30.8225 23.1932 28.9458L25.0672 25.7127C26.1513 23.8421 28.5434 23.2091 30.4103 24.2828L31.9014 25.1403C33.3768 23.983 35.0561 23.0727 36.8761 22.4714V20.5776C36.8761 18.4078 38.6391 16.6665 40.7921 16.6665H44.5399C46.6929 16.6665 48.4559 18.4078 48.4559 20.5776V22.9416C50.0062 23.5985 51.4346 24.4865 52.6974 25.5622L54.9219 24.2828C56.7889 23.2091 59.1809 23.8422 60.2651 25.7127L62.139 28.9459C63.2267 30.8226 62.577 33.2175 60.704 34.2947L58.2871 35.6847Z" fill="#E1A200"/>
</g>
</svg>
