<svg width="73" height="64" viewBox="0 0 73 64" fill="none" xmlns="http://www.w3.org/2000/svg">
<g filter="url(#filter0_d)">
<path d="M26.4415 37H11C8.23858 37 6 34.7614 6 32V6C6 3.23858 8.23858 1 11 1H62C64.7614 1 67 3.23858 67 6V32C67 34.7614 64.7614 37 62 37H61.8085" stroke="#E1A200" stroke-width="2" stroke-linecap="round" stroke-linejoin="round"/>
<path d="M26.4415 48H8.5C7.11929 48 6 49.1193 6 50.5V50.5C6 51.8807 7.11929 53 8.5 53H64.5C65.8807 53 67 51.8807 67 50.5V50.5C67 49.1193 65.8807 48 64.5 48H61.8085" stroke="#E1A200" stroke-width="2" stroke-linecap="round" stroke-linejoin="round"/>
<path d="M56 23.8364V20C56 17.2386 53.7614 15 51 15H37C34.2386 15 32 17.2386 32 20V46C32 48.7614 34.2386 51 37 51H41.7297" stroke="#E1A200" stroke-width="2" stroke-linecap="round" stroke-linejoin="round"/>
<rect x="45" y="27" width="13" height="25" rx="6" stroke="#E1A200" stroke-width="2" stroke-linecap="round" stroke-linejoin="round"/>
<circle cx="52" cy="49" r="1" fill="#FFDB5E"/>
</g>
<defs>
<filter id="filter0_d" x="0" y="0" width="73" height="64" filterUnits="userSpaceOnUse" color-interpolation-filters="sRGB">
<feFlood flood-opacity="0" result="BackgroundImageFix"/>
<feColorMatrix in="SourceAlpha" type="matrix" values="0 0 0 0 0 0 0 0 0 0 0 0 0 0 0 0 0 0 127 0"/>
<feOffset dy="5"/>
<feGaussianBlur stdDeviation="2.5"/>
<feColorMatrix type="matrix" values="0 0 0 0 0 0 0 0 0 0 0 0 0 0 0 0 0 0 0.4 0"/>
<feBlend mode="normal" in2="BackgroundImageFix" result="effect1_dropShadow"/>
<feBlend mode="normal" in="SourceGraphic" in2="effect1_dropShadow" result="shape"/>
</filter>
</defs>
</svg>
