<svg width="64" height="54" viewBox="0 0 64 54" fill="none" xmlns="http://www.w3.org/2000/svg">
<rect x="1" y="1" width="62" height="37" rx="5" stroke="#141520" stroke-width="2"/>
<rect x="1" y="49" width="62" height="4" rx="2" stroke="#141520" stroke-width="2"/>
<path d="M19 8C19 7.44772 18.5523 7 18 7C17.4477 7 17 7.44772 17 8H19ZM18 30H17C17 30.5523 17.4477 31 18 31V30ZM46 31C46.5523 31 47 30.5523 47 30C47 29.4477 46.5523 29 46 29V31ZM22.2131 22.2083C22.2131 21.656 21.7654 21.2083 21.2131 21.2083C20.6608 21.2083 20.2131 21.656 20.2131 22.2083H22.2131ZM28.0984 15.3333L28.8049 14.6257C28.4145 14.2359 27.7822 14.2359 27.3918 14.6257L28.0984 15.3333ZM41.9508 12.5833C41.9508 12.031 41.5031 11.5833 40.9508 11.5833C40.3985 11.5833 39.9508 12.031 39.9508 12.5833H41.9508ZM43.7049 9.83333H44.7049C44.7049 9.28105 44.2572 8.83333 43.7049 8.83333V9.83333ZM39.5738 8.83333C39.0215 8.83333 38.5738 9.28105 38.5738 9.83333C38.5738 10.3856 39.0215 10.8333 39.5738 10.8333V8.83333ZM42.7049 13.9583C42.7049 14.5106 43.1526 14.9583 43.7049 14.9583C44.2572 14.9583 44.7049 14.5106 44.7049 13.9583H42.7049ZM18 31H21.2131V29H18V31ZM22.2131 30V22.2083H20.2131V30H22.2131ZM21.2131 31H28.0984V29H21.2131V31ZM29.0984 30V15.3333H27.0984V30H29.0984ZM28.0984 31H33.1475V29H28.0984V31ZM34.1475 30V20.375H32.1475V30H34.1475ZM33.1475 31H40.9508V29H33.1475V31ZM40.9508 31H46V29H40.9508V31ZM41.9508 30V12.5833H39.9508V30H41.9508ZM17 8V25.4167H19V8H17ZM17 25.4167V30H19V25.4167H17ZM18.7066 26.1243L28.8049 16.041L27.3918 14.6257L17.2934 24.709L18.7066 26.1243ZM27.3918 16.041L32.441 21.0826L33.8541 19.6674L28.8049 14.6257L27.3918 16.041ZM33.8541 21.0826L44.4115 10.541L42.9983 9.1257L32.441 19.6674L33.8541 21.0826ZM43.7049 8.83333H39.5738V10.8333H43.7049V8.83333ZM42.7049 9.83333V13.9583H44.7049V9.83333H42.7049Z" fill="#141520"/>
</svg>
