<svg width="25" height="26" viewBox="0 0 25 26" fill="none" xmlns="http://www.w3.org/2000/svg">
<g clip-path="url(#clip0)">
<path d="M12.4383 0.700684C5.65244 0.700684 0.150635 6.20249 0.150635 12.9884C0.150635 19.7742 5.65244 25.276 12.4383 25.276C19.2242 25.276 24.726 19.7742 24.726 12.9884C24.726 6.20097 19.2242 0.700684 12.4383 0.700684ZM9.36639 18.9402H6.29447V8.18845H9.36639V18.9402ZM7.92564 7.52955C7.13002 7.52955 6.48647 6.88443 6.48647 6.0888C6.48647 5.29317 7.13158 4.64806 7.92564 4.64806C8.72127 4.64958 9.36639 5.29469 9.36639 6.0888C9.36639 6.88443 8.72127 7.52955 7.92564 7.52955ZM20.1181 18.9402H17.0462V12.2926C17.0462 11.5138 16.8234 10.9686 15.8665 10.9686C14.2799 10.9686 13.9742 12.2926 13.9742 12.2926V18.9402H10.9023V8.18845H13.9742V9.216C14.4135 8.87965 15.5102 8.18997 17.0462 8.18997C18.0415 8.18997 20.1181 8.78592 20.1181 12.3862V18.9402Z" fill="#454545"/>
</g>
<defs>
<clipPath id="clip0">
<rect width="24.5753" height="24.5753" fill="white" transform="translate(0.150635 0.700684)"/>
</clipPath>
</defs>
</svg>
