<svg width="25" height="26" viewBox="0 0 25 26" fill="none" xmlns="http://www.w3.org/2000/svg">
<g clip-path="url(#clip0)">
<path d="M15.95 7.23877H8.6254C7.45629 7.23877 6.50513 8.18994 6.50513 9.35904V16.6836C6.50513 17.8527 7.45629 18.8042 8.6254 18.8042H15.95C17.1191 18.8042 18.0705 17.853 18.0705 16.6836V9.35904C18.0705 8.18994 17.1194 7.23877 15.95 7.23877ZM12.2877 16.8287C10.1885 16.8287 8.48056 15.1208 8.48056 13.0213C8.48056 10.9221 10.1885 9.2142 12.2877 9.2142C14.3872 9.2142 16.0951 10.9221 16.0951 13.0213C16.0951 15.1205 14.3869 16.8287 12.2877 16.8287ZM16.2175 10.0014C15.7205 10.0014 15.3164 9.59724 15.3164 9.10058C15.3164 8.60391 15.7205 8.19979 16.2175 8.19979C16.7141 8.19979 17.1183 8.60391 17.1183 9.10058C17.1183 9.59724 16.7141 10.0014 16.2175 10.0014Z" fill="#454545"/>
<path d="M12.2877 10.8232C11.0759 10.8232 10.0891 11.8095 10.0891 13.0213C10.0891 14.2336 11.0759 15.2201 12.2877 15.2201C13.5001 15.2201 14.486 14.2336 14.486 13.0213C14.486 11.8097 13.4998 10.8232 12.2877 10.8232Z" fill="#454545"/>
<path d="M12.2877 0.700684C5.50165 0.700684 0 6.20233 0 12.9884C0 19.7744 5.50165 25.276 12.2877 25.276C19.0737 25.276 24.5753 19.7744 24.5753 12.9884C24.5753 6.20233 19.0737 0.700684 12.2877 0.700684ZM19.6791 16.6838C19.6791 18.7402 18.0064 20.4129 15.95 20.4129H8.62538C6.56918 20.4129 4.89629 18.7402 4.89629 16.6838V9.35919C4.89629 7.30299 6.56918 5.6301 8.62538 5.6301H15.95C18.0064 5.6301 19.6791 7.30299 19.6791 9.35919V16.6838Z" fill="#454545"/>
</g>
<defs>
<clipPath id="clip0">
<rect width="24.5753" height="24.5753" fill="white" transform="translate(0 0.700684)"/>
</clipPath>
</defs>
</svg>
