<svg width="65" height="58" viewBox="0 0 65 58" fill="none" xmlns="http://www.w3.org/2000/svg">
<circle cx="36.1374" cy="29.0002" r="3.89474" stroke="#E1A200" stroke-width="2"/>
<path fill-rule="evenodd" clip-rule="evenodd" d="M45.5853 28.0434C45.6155 28.3582 45.631 28.6774 45.631 29.0001C45.631 29.3229 45.6155 29.642 45.5853 29.9568C45.5204 30.6312 45.3877 31.2858 45.1939 31.9138C45.4177 31.8538 45.6644 31.879 45.8808 32.0035L48.2297 33.3544C48.6622 33.6031 48.8103 34.1538 48.5607 34.5846L47.2045 36.9244C46.9549 37.3551 46.4019 37.5027 45.9695 37.254L43.6206 35.9031C43.4364 35.7972 43.3038 35.6365 43.2316 35.4536C42.8008 35.9529 42.3209 36.4089 41.7994 36.8143C41.2817 37.2169 40.7228 37.5694 40.1303 37.8648C39.5582 38.1499 38.9547 38.3817 38.3263 38.5537C38.3727 38.662 38.3983 38.7813 38.3983 38.9066V41.6083C38.3983 42.1057 37.9936 42.5089 37.4942 42.5089H34.782C34.2827 42.5089 33.8779 42.1057 33.8779 41.6083V38.9066C33.8779 38.8517 33.8828 38.798 33.8922 38.7458C33.2486 38.629 32.6266 38.4505 32.0327 38.2167C31.3552 37.95 30.7141 37.6113 30.119 37.2101C29.646 36.8913 29.202 36.5329 28.7918 36.1398C28.7237 36.0745 28.6564 36.0082 28.5901 35.9409L26.3069 37.2541C25.8745 37.5027 25.3215 37.3552 25.0719 36.9244L23.7157 34.5846C23.4661 34.1539 23.6142 33.6031 24.0466 33.3544L26.2361 32.0952C26.1564 31.8537 26.0858 31.608 26.0247 31.3587C25.9281 30.9646 25.8551 30.5613 25.8074 30.1503C25.7636 29.7729 25.7411 29.3891 25.7411 29.0001C25.7411 28.6111 25.7636 28.2273 25.8074 27.85C25.8551 27.4389 25.9281 27.0354 26.0248 26.6412C26.0859 26.392 26.1565 26.1465 26.2361 25.9051L24.0465 24.6458C23.6141 24.3971 23.466 23.8463 23.7156 23.4156L25.0717 21.0758C25.3214 20.6451 25.8743 20.4975 26.3067 20.7462L28.5901 22.0594C28.6563 21.9922 28.7235 21.926 28.7916 21.8607C29.2018 21.4675 29.6458 21.1091 30.1189 20.7901C30.714 20.3889 31.3551 20.0502 32.0327 19.7835C32.6266 19.5497 33.2486 19.3712 33.8922 19.2544C33.8828 19.2023 33.8779 19.1485 33.8779 19.0937V16.3919C33.8779 15.8946 34.2827 15.4913 34.782 15.4913H37.4942C37.9936 15.4913 38.3983 15.8946 38.3983 16.3919V19.0937C38.3983 19.2189 38.3727 19.3382 38.3263 19.4466C38.9547 19.6185 39.5582 19.8503 40.1303 20.1355C40.7229 20.4308 41.2817 20.7834 41.7995 21.186C42.321 21.5914 42.8009 22.0475 43.2316 22.5468C43.3039 22.3638 43.4365 22.203 43.6207 22.0971L45.9696 20.7462C46.4021 20.4975 46.955 20.6451 47.2046 21.0759L48.5608 23.4156C48.8104 23.8464 48.6623 24.3972 48.2299 24.6459L45.881 25.9967C45.6644 26.1213 45.4177 26.1464 45.1939 26.0864C45.3876 26.7145 45.5204 27.3691 45.5853 28.0434ZM47.4429 27.3247C47.5206 27.8719 47.5609 28.4313 47.5609 29.0001C47.5609 29.569 47.5206 30.1283 47.4429 30.6756L49.1918 31.6815C50.5473 32.461 51.0175 34.1942 50.2303 35.5523L48.8742 37.8921C48.0896 39.2458 46.3585 39.7039 45.0074 38.9269L43.3976 38.0011C42.4838 38.7796 41.4501 39.4221 40.3282 39.8976V41.6083C40.3282 43.1786 39.0523 44.4387 37.4942 44.4387H34.782C33.2239 44.4387 31.9481 43.1786 31.9481 41.6083V40.2378C30.631 39.8027 29.4157 39.1439 28.348 38.3064L27.269 38.927C25.9179 39.704 24.1868 39.2459 23.4022 37.8921L22.0461 35.5524C21.2589 34.1942 21.7291 32.4611 23.0845 31.6815L24.0068 31.1511C23.8784 30.4537 23.8113 29.7348 23.8113 29.0001C23.8113 28.2655 23.8784 27.5466 24.0068 26.8492L23.0844 26.3187C21.729 25.5392 21.2588 23.806 22.046 22.4479L23.4021 20.1081C24.1867 18.7544 25.9178 18.2963 27.2689 19.0733L28.3479 19.6939C29.4157 18.8564 30.6309 18.1975 31.9481 17.7624V16.3919C31.9481 14.8217 33.2239 13.5615 34.782 13.5615H37.4942C39.0523 13.5615 40.3282 14.8217 40.3282 16.3919V18.1027C41.4501 18.5781 42.4838 19.2207 43.3977 19.9992L45.0075 19.0733C46.3586 18.2963 48.0897 18.7544 48.8743 20.1081L50.2304 22.4479C51.0176 23.8061 50.5474 25.5392 49.192 26.3188L47.4429 27.3247Z" fill="#E1A200"/>
<path d="M2.31815 16.9047L16.0895 8.5564L16.2122 23.3595" stroke="#E1A200" stroke-width="2" stroke-linecap="round" stroke-linejoin="round"/>
<path d="M35.6761 1.01758C34.1134 1.01758 32.581 1.14774 31.0893 1.3978M14.7807 10.6201C10.6506 15.4302 8.15527 21.6827 8.15527 28.5176C8.15527 43.7054 20.4768 56.0176 35.6761 56.0176C49.6665 56.0176 61.2187 45.5861 62.9679 32.0824M20.8964 5.31562C22.2732 4.43812 23.7333 3.67962 25.2622 3.05462M41.7919 1.69902C43.014 1.97611 44.2051 2.33446 45.3594 2.76809M50.9655 5.64842C52.2331 6.49624 53.4262 7.4465 54.533 8.48732M58.5627 13.2398C59.4238 14.5254 60.1794 15.8875 60.817 17.3139M62.6256 22.9157C62.9002 24.2413 63.0792 25.6019 63.1553 26.9898" stroke="#E1A200" stroke-width="2" stroke-linecap="round" stroke-linejoin="round"/>
</svg>
