<svg width="54" height="47" viewBox="0 0 54 47" fill="none" xmlns="http://www.w3.org/2000/svg">
<path d="M1 42H0C0 42.3192 0.152343 42.6191 0.41004 42.8074C0.667738 42.9957 0.999832 43.0497 1.30389 42.9527L1 42ZM1 5.3617L0.75406 4.39242C0.310555 4.50495 0 4.90414 0 5.3617H1ZM5.72727 4.48936L5.44876 3.52893L5.72727 4.48936ZM27.2149 7.54255L26.4043 8.12821C26.5923 8.38843 26.8938 8.54255 27.2149 8.54255C27.5359 8.54255 27.8374 8.38843 28.0254 8.12821L27.2149 7.54255ZM7.44628 40.6915L7.73476 41.649L7.44628 40.6915ZM24.815 41.0067C25.2195 41.3827 25.8522 41.3596 26.2283 40.9551C26.6043 40.5506 26.5812 39.9179 26.1767 39.5419L24.815 41.0067ZM53 42L52.6961 42.9527C53.0002 43.0497 53.3323 42.9957 53.59 42.8074C53.8477 42.6191 54 42.3192 54 42H53ZM53 5.3617H54C54 4.90414 53.6894 4.50495 53.2459 4.39242L53 5.3617ZM48.2727 4.48936L48.5512 3.52893L48.2727 4.48936ZM46.5537 40.6915L46.2652 41.649L46.5537 40.6915ZM28.253 39.5419C27.8485 39.9179 27.8254 40.5506 28.2015 40.9551C28.5775 41.3596 29.2103 41.3827 29.6148 41.0067L28.253 39.5419ZM2 42V5.3617H0V42H2ZM1.24594 6.33099C1.31436 6.31363 1.46178 6.29124 1.7619 6.25498C2.03495 6.22199 2.3974 6.18115 2.81392 6.12316C3.65482 6.00609 4.74311 5.81595 6.00578 5.4498L5.44876 3.52893C4.30483 3.86065 3.31598 4.03398 2.53815 4.14227C2.1453 4.19696 1.81298 4.23426 1.52199 4.26942C1.25805 4.30131 0.972143 4.33708 0.75406 4.39242L1.24594 6.33099ZM6.00578 5.4498C6.8077 5.21725 7.70741 4.87376 8.64346 4.50732C9.59326 4.1355 10.5936 3.73468 11.6488 3.35987C13.7629 2.60887 15.9982 2 18.1901 2V0C15.6547 0 13.1627 0.699638 10.9793 1.47524C9.88569 1.86373 8.84476 2.28073 7.91439 2.64494C6.97028 3.01454 6.15098 3.3253 5.44876 3.52893L6.00578 5.4498ZM18.1901 2C20.2167 2 21.8475 2.92713 23.204 4.18635C24.5803 5.46402 25.5828 6.99128 26.4043 8.12821L28.0254 6.95689C27.2712 5.91297 26.1249 4.16896 24.5646 2.72056C22.9845 1.25372 20.8907 0 18.1901 0V2ZM18.1901 36.2021C15.8524 36.2021 14.3205 36.7366 12.7429 37.4485C11.1899 38.1494 9.67198 38.9765 7.1578 39.734L7.73476 41.649C10.4143 40.8417 12.1195 39.9241 13.5656 39.2715C14.9871 38.63 16.2303 38.2021 18.1901 38.2021V36.2021ZM7.1578 39.734C6.33548 39.9818 5.11349 40.1965 3.86643 40.4084C2.68368 40.6093 1.42434 40.815 0.696105 41.0473L1.30389 42.9527C1.86034 42.7752 2.92952 42.5962 4.20143 42.3801C5.40903 42.1749 6.76785 41.9403 7.73476 41.649L7.1578 39.734ZM26.1767 39.5419C24.7582 38.2231 21.6016 36.2021 18.1901 36.2021V38.2021C20.9052 38.2021 23.5974 39.8747 24.815 41.0067L26.1767 39.5419ZM54 42V5.3617H52V42H54ZM53.2459 4.39242C53.0279 4.33708 52.7419 4.30131 52.478 4.26942C52.187 4.23426 51.8547 4.19696 51.4619 4.14227C50.684 4.03398 49.6952 3.86065 48.5512 3.52893L47.9942 5.4498C49.2569 5.81595 50.3452 6.00609 51.1861 6.12316C51.6026 6.18115 51.965 6.22199 52.2381 6.25498C52.5382 6.29124 52.6856 6.31363 52.7541 6.33099L53.2459 4.39242ZM48.5512 3.52893C47.849 3.3253 47.0297 3.01454 46.0856 2.64494C45.1552 2.28073 44.1143 1.86373 43.0207 1.47524C40.8373 0.699638 38.3453 0 35.8099 0V2C38.0018 2 40.2371 2.60887 42.3512 3.35987C43.4064 3.73468 44.4067 4.1355 45.3565 4.50732C46.2926 4.87376 47.1923 5.21725 47.9942 5.4498L48.5512 3.52893ZM35.8099 0C33.0975 0 31.103 1.26452 29.6229 2.74691C28.1872 4.18484 27.1202 5.96616 26.4043 6.95689L28.0254 8.12821C28.8853 6.93809 29.7521 5.44814 31.0382 4.16001C32.28 2.91633 33.795 2 35.8099 2V0ZM35.8099 38.2021C37.7697 38.2021 39.0129 38.63 40.4344 39.2715C41.8804 39.9241 43.5857 40.8417 46.2652 41.649L46.8422 39.734C44.328 38.9765 42.8101 38.1494 41.2571 37.4485C39.6795 36.7366 38.1476 36.2021 35.8099 36.2021V38.2021ZM46.2652 41.649C47.2322 41.9403 48.591 42.1749 49.7986 42.3801C51.0705 42.5962 52.1397 42.7752 52.6961 42.9527L53.3039 41.0473C52.5757 40.815 51.3163 40.6093 50.1336 40.4084C48.8865 40.1965 47.6645 39.9818 46.8422 39.734L46.2652 41.649ZM29.6148 41.0067C30.8777 39.8326 33.1333 38.2021 35.8099 38.2021V36.2021C32.3599 36.2021 29.6262 38.2653 28.253 39.5419L29.6148 41.0067Z" fill="#E1A200"/>
<path d="M0.684553 45.0511C0.160466 45.2253 -0.12316 45.7914 0.0510567 46.3154C0.225273 46.8395 0.79136 47.1232 1.31545 46.9489L0.684553 45.0511ZM7.44628 44.6364L7.74584 45.5904L7.44628 44.6364ZM24.8 44.9198C25.1967 45.3041 25.8298 45.294 26.2141 44.8974C26.5984 44.5007 26.5883 43.8676 26.1917 43.4833L24.8 44.9198ZM52.6846 46.9489C53.2086 47.1232 53.7747 46.8395 53.9489 46.3154C54.1232 45.7914 53.8395 45.2253 53.3154 45.0511L52.6846 46.9489ZM46.5537 44.6364L46.2542 45.5904L46.5537 44.6364ZM28.2381 43.4833C27.8414 43.8676 27.8314 44.5007 28.2157 44.8974C28.6 45.294 29.233 45.3041 29.6297 44.9198L28.2381 43.4833ZM18.1901 40C15.8443 40 14.3073 40.5593 12.7287 41.3017C11.1742 42.0328 9.65861 42.8936 7.14672 43.6823L7.74584 45.5904C10.4277 44.7484 12.1352 43.791 13.5798 43.1116C15.0002 42.4435 16.2383 42 18.1901 42V40ZM7.14672 43.6823C6.32681 43.9397 5.10726 44.1631 3.85959 44.384C2.67834 44.5932 1.41561 44.808 0.684553 45.0511L1.31545 46.9489C1.86907 46.7649 2.93486 46.5789 4.20827 46.3534C5.41526 46.1397 6.77652 45.8948 7.74584 45.5904L7.14672 43.6823ZM26.1917 43.4833C24.7775 42.1132 21.6164 40 18.1901 40V42C20.8904 42 23.5781 43.736 24.8 44.9198L26.1917 43.4833ZM35.8099 42C37.7617 42 38.9997 42.4435 40.4202 43.1116C41.8648 43.791 43.5723 44.7484 46.2542 45.5904L46.8533 43.6823C44.3414 42.8936 42.8258 42.0328 41.2713 41.3017C39.6927 40.5593 38.1557 40 35.8099 40V42ZM46.2542 45.5904C47.2235 45.8948 48.5847 46.1397 49.7917 46.3534C51.0651 46.5789 52.1309 46.7649 52.6846 46.9489L53.3154 45.0511C52.5844 44.808 51.3217 44.5932 50.1404 44.384C48.8927 44.1631 47.6732 43.9397 46.8533 43.6823L46.2542 45.5904ZM29.6297 44.9198C30.8977 43.6914 33.1487 42 35.8099 42V40C32.3445 40 29.6062 42.1578 28.2381 43.4833L29.6297 44.9198Z" fill="#E1A200"/>
<path d="M27 11.5V37" stroke="#E1A200" stroke-width="2" stroke-linecap="round" stroke-linejoin="round"/>
</svg>
