<svg width="50" height="64" viewBox="0 0 50 64" fill="none" xmlns="http://www.w3.org/2000/svg">
<path d="M15 32.2593L21.8293 39L35 26" stroke="#E1A200" stroke-width="2" stroke-linecap="round" stroke-linejoin="round"/>
<mask id="path-2-outside-1" maskUnits="userSpaceOnUse" x="0" y="0" width="51" height="64" fill="black">
<rect fill="white" width="51" height="64"/>
<path d="M5.53832 44.75C9.33573 52.73 20.0951 59.575 25 61C29.905 59.575 40.6643 52.73 44.4617 44.75C48.2591 36.77 48.2591 20.9417 47.7844 13.025C44.9364 12.8667 39.715 12.7083 36.3922 11.6C33.0695 10.4917 30.2214 10.175 25 4C19.7786 10.175 16.9305 10.4917 13.6078 11.6C10.285 12.7083 5.06363 12.8667 2.21559 13.025C1.74091 20.9417 1.74091 36.77 5.53832 44.75Z"/>
</mask>
<path d="M25 61L24.4421 62.9206L25 63.0827L25.558 62.9206L25 61ZM2.21559 13.025L2.10457 11.0281L0.325801 11.127L0.219174 12.9053L2.21559 13.025ZM13.6078 11.6L12.9749 9.70276L13.6078 11.6ZM25 4L26.5273 2.70863L25 0.902503L23.4728 2.70863L25 4ZM47.7844 13.025L49.7808 12.9053L49.6742 11.127L47.8954 11.0281L47.7844 13.025ZM36.3922 11.6L37.0251 9.70276L36.3922 11.6ZM25.558 59.0794C23.426 58.46 19.7325 56.5442 16.0682 53.744C12.4088 50.9475 9.04888 47.4727 7.34427 43.8906L3.73237 45.6094C5.82517 50.0073 9.74359 53.945 13.6394 56.9222C17.5305 59.8958 21.6691 62.115 24.4421 62.9206L25.558 59.0794ZM7.34427 43.8906C5.61694 40.2607 4.6827 34.6299 4.27006 28.7243C3.86209 22.8856 3.97854 17.0384 4.212 13.1447L0.219174 12.9053C-0.0220413 16.9283 -0.142924 22.9535 0.279788 29.0032C0.697826 34.9859 1.6623 41.2593 3.73237 45.6094L7.34427 43.8906ZM2.3266 15.0219C3.70936 14.945 5.79463 14.8626 7.92342 14.6597C10.0352 14.4585 12.3563 14.1258 14.2406 13.4972L12.9749 9.70276C11.5365 10.1826 9.58552 10.4832 7.54393 10.6778C5.51932 10.8707 3.56986 10.9466 2.10457 11.0281L2.3266 15.0219ZM14.2406 13.4972C15.7202 13.0037 17.5684 12.5573 19.5637 11.448C21.6149 10.3077 23.812 8.50251 26.5273 5.29137L23.4728 2.70863C20.9667 5.67249 19.129 7.11314 17.6201 7.95196C16.0553 8.8219 14.8181 9.08796 12.9749 9.70276L14.2406 13.4972ZM25.558 62.9206C28.331 62.115 32.4696 59.8958 36.3606 56.9222C40.2564 53.945 44.1748 50.0073 46.2676 45.6094L42.6557 43.8906C40.9511 47.4727 37.5912 50.9475 33.9318 53.744C30.2676 56.5442 26.5741 58.46 24.4421 59.0794L25.558 62.9206ZM46.2676 45.6094C48.3377 41.2593 49.3022 34.9859 49.7202 29.0032C50.1429 22.9535 50.022 16.9283 49.7808 12.9053L45.788 13.1447C46.0215 17.0384 46.1379 22.8856 45.7299 28.7243C45.3173 34.6299 44.3831 40.2607 42.6557 43.8906L46.2676 45.6094ZM47.8954 11.0281C46.4301 10.9466 44.4807 10.8707 42.4561 10.6778C40.4145 10.4832 38.4635 10.1826 37.0251 9.70276L35.7594 13.4972C37.6437 14.1258 39.9648 14.4585 42.0766 14.6597C44.2054 14.8626 46.2906 14.945 47.6734 15.0219L47.8954 11.0281ZM37.0251 9.70276C35.1819 9.08796 33.9447 8.8219 32.3799 7.95197C30.8711 7.11315 29.0334 5.67249 26.5273 2.70863L23.4728 5.29137C26.1881 8.5025 28.3851 10.3077 30.4363 11.448C32.4316 12.5573 34.2798 13.0037 35.7594 13.4972L37.0251 9.70276Z" fill="#E1A200" mask="url(#path-2-outside-1)"/>
</svg>
