<svg width="60" height="51" viewBox="0 0 60 51" fill="none" xmlns="http://www.w3.org/2000/svg">
<path d="M46.5 17.9999C46.3911 8.93069 39.3614 1.49506 30.215 1.24755C20.8427 0.993925 13.0394 8.38604 12.7858 17.7583L12.6647 22.2321C12.6486 22.8282 12.6634 23.418 12.7077 23.9999H10.5C5.25329 23.9999 1 28.2532 1 33.4999C1 38.7466 5.25329 42.9999 10.5 42.9999H22M46.5 17.9999C46.5771 17.9999 46.4232 17.9985 46.5 17.9999ZM46.5 17.9999C53.297 18.123 59 23.6735 59 30.4999C59 37.4035 53.4036 42.9999 46.5 42.9999H38" stroke="#E1A200" stroke-width="2" stroke-linecap="round" stroke-linejoin="round"/>
<path d="M30 23V46" stroke="#E1A200" stroke-width="2" stroke-linecap="round" stroke-linejoin="round"/>
<circle cx="30" cy="50" r="1" fill="#E1A200"/>
</svg>
