<svg width="36" height="19" viewBox="0 0 36 19" fill="none" xmlns="http://www.w3.org/2000/svg">
<path d="M34.5 8.5C35.0523 8.5 35.5 8.94772 35.5 9.5C35.5 10.0523 35.0523 10.5 34.5 10.5V8.5ZM1 9.5L0.292892 10.2071C-0.0976295 9.81658 -0.0976295 9.18342 0.292892 8.79289L1 9.5ZM8.79289 0.292893C9.18342 -0.0976311 9.81658 -0.0976311 10.2071 0.292893C10.5976 0.683417 10.5976 1.31658 10.2071 1.70711L8.79289 0.292893ZM10.2071 17.2929C10.5976 17.6834 10.5976 18.3166 10.2071 18.7071C9.81658 19.0976 9.18342 19.0976 8.79289 18.7071L10.2071 17.2929ZM34.5 10.5H1V8.5H34.5V10.5ZM0.292892 8.79289L8.79289 0.292893L10.2071 1.70711L1.70711 10.2071L0.292892 8.79289ZM1.70711 8.79289L10.2071 17.2929L8.79289 18.7071L0.292892 10.2071L1.70711 8.79289Z" fill="#E1A200"/>
</svg>
