<svg width="32" height="27" viewBox="0 0 32 27" fill="none" xmlns="http://www.w3.org/2000/svg">
<path d="M2 24V3H0V24H2ZM3 2H10V0H3V2ZM18 2H24V0H18V2ZM25 3V10H27V3H25ZM25 18V24H27V18H25ZM24 25H18V27H24V25ZM10 25H3V27H10V25ZM0 24C0 25.6569 1.34315 27 3 27V25C2.44771 25 2 24.5523 2 24H0ZM25 24C25 24.5523 24.5523 25 24 25V27C25.6569 27 27 25.6569 27 24H25ZM24 2C24.5523 2 25 2.44772 25 3H27C27 1.34315 25.6569 0 24 0V2ZM2 3C2 2.44772 2.44772 2 3 2V0C1.34315 0 0 1.34315 0 3H2ZM12 3V2H10V3H12ZM16 2V3H18V2H16ZM14 5C12.8954 5 12 4.10457 12 3H10C10 5.20914 11.7909 7 14 7V5ZM14 7C16.2091 7 18 5.20914 18 3H16C16 4.10457 15.1046 5 14 5V7ZM10 24V25H12V24H10ZM18 25V24H16V25H18ZM14 20C11.7909 20 10 21.7909 10 24H12C12 22.8954 12.8954 22 14 22V20ZM14 22C15.1046 22 16 22.8954 16 24H18C18 21.7909 16.2091 20 14 20V22ZM28 16H27V18H28V16ZM27 12H28V10H27V12ZM30 14C30 15.1046 29.1046 16 28 16V18C30.2091 18 32 16.2091 32 14H30ZM32 14C32 11.7909 30.2091 10 28 10V12C29.1046 12 30 12.8954 30 14H32ZM10 27C11.1046 27 12 26.1046 12 25H10V27ZM18 25H16C16 26.1046 16.8954 27 18 27V25ZM25 10C25 11.1046 25.8954 12 27 12V10H25ZM18 0C16.8954 0 16 0.89543 16 2H18V0ZM27 18V16C25.8954 16 25 16.8954 25 18H27ZM10 2H12C12 0.895431 11.1046 0 10 0V2Z" fill="#E1A200"/>
</svg>
