<svg width="32" height="27" viewBox="0 0 32 27" fill="none" xmlns="http://www.w3.org/2000/svg">
<path d="M15.5 2C16.0523 2 16.5 1.55228 16.5 1C16.5 0.447715 16.0523 0 15.5 0V2ZM4.5 10C5.05228 10 5.5 9.55229 5.5 9C5.5 8.44772 5.05228 8 4.5 8V10ZM3.60107 16.3397C3.77057 16.8653 4.33408 17.154 4.85971 16.9845C5.38535 16.815 5.67405 16.2515 5.50456 15.7259L3.60107 16.3397ZM5 12.5C5 6.70101 9.70101 2 15.5 2V0C8.59644 0 3 5.59644 3 12.5H5ZM2 14V11H0V14H2ZM3 10H4.5V8H3V10ZM4.5423 15H3V17H4.5423V15ZM0 14C0 15.6569 1.34315 17 3 17V15C2.44772 15 2 14.5523 2 14H0ZM2 11C2 10.4477 2.44772 10 3 10V8C1.34315 8 0 9.34315 0 11H2ZM5.50456 15.7259C5.50135 15.7159 5.49815 15.7059 5.49496 15.696L3.58964 16.304C3.59344 16.3159 3.59725 16.3278 3.60107 16.3397L5.50456 15.7259ZM5.49497 15.696C5.17376 14.6895 5 13.616 5 12.5H3C3 13.8248 3.20644 15.1033 3.58964 16.304L5.49497 15.696Z" fill="white"/>
<path d="M16 2C15.4477 2 15 1.55228 15 1C15 0.447715 15.4477 0 16 0V2ZM26.5 12.5C26.5 6.70101 21.799 2 16 2V0C22.9036 0 28.5 5.59644 28.5 12.5H26.5ZM29.5 14V11H31.5V14H29.5ZM28.5 10H27V8H28.5V10ZM27 15H28.5V17H27V15ZM31.5 14C31.5 15.6569 30.1569 17 28.5 17V15C29.0523 15 29.5 14.5523 29.5 14H31.5ZM29.5 11C29.5 10.4477 29.0523 10 28.5 10V8C30.1569 8 31.5 9.34315 31.5 11H29.5ZM17.8273 22.8417C22.7551 21.9776 26.5 17.6751 26.5 12.5H28.5C28.5 18.6631 24.0407 23.7826 18.1727 24.8117L17.8273 22.8417Z" fill="white"/>
<rect x="12" y="22" width="6" height="4" rx="2" stroke="white" stroke-width="2"/>
</svg>
