<svg width="76" height="69" viewBox="0 0 76 69" fill="none" xmlns="http://www.w3.org/2000/svg">
<g filter="url(#filter0_d)">
<path d="M47.8564 37H26.4415H11C8.23858 37 6 34.7614 6 32V6C6 3.23858 8.23858 1 11 1H62C64.7614 1 67 3.23858 67 6V31.6316" stroke="#E1A200" stroke-width="2" stroke-linecap="round" stroke-linejoin="round"/>
<path d="M47.4648 48H26.4085H8.5C7.11929 48 6 49.1193 6 50.5V50.5C6 51.8807 7.11929 53 8.5 53H52" stroke="#E1A200" stroke-width="2" stroke-linecap="round" stroke-linejoin="round"/>
<path d="M18 23.5882C18.9722 22.7255 21.6944 21 24.8056 21C28.6944 21 32.5833 24.8824 36.1481 24.8824C39.713 24.8824 44.25 21 47.4907 21C50.0833 21 52.2438 22.7255 53 23.5882M29.3426 29.0882C30.7469 30.0588 34.0741 32 36.1481 32C38.2222 32 41.1173 30.0588 42.3056 29.0882" stroke="#E1A200" stroke-width="2" stroke-linecap="round" stroke-linejoin="round"/>
<rect x="51" y="31" width="19" height="27" rx="9.5" stroke="#E1A200" stroke-width="2" stroke-linecap="round" stroke-linejoin="round"/>
<rect x="59" y="36" width="3" height="6" rx="1.5" fill="#E1A200"/>
<path d="M48 21C48 14.9249 43.0751 10 37 10C30.9249 10 26 14.9249 26 21" stroke="#E1A200" stroke-width="2" stroke-linecap="round" stroke-linejoin="round"/>
</g>
<defs>
<filter id="filter0_d" x="0" y="0" width="76" height="69" filterUnits="userSpaceOnUse" color-interpolation-filters="sRGB">
<feFlood flood-opacity="0" result="BackgroundImageFix"/>
<feColorMatrix in="SourceAlpha" type="matrix" values="0 0 0 0 0 0 0 0 0 0 0 0 0 0 0 0 0 0 127 0"/>
<feOffset dy="5"/>
<feGaussianBlur stdDeviation="2.5"/>
<feColorMatrix type="matrix" values="0 0 0 0 0 0 0 0 0 0 0 0 0 0 0 0 0 0 0.4 0"/>
<feBlend mode="normal" in2="BackgroundImageFix" result="effect1_dropShadow"/>
<feBlend mode="normal" in="SourceGraphic" in2="effect1_dropShadow" result="shape"/>
</filter>
</defs>
</svg>
