<svg width="85" height="71" viewBox="0 0 85 71" fill="none" xmlns="http://www.w3.org/2000/svg">
<rect x="1.33398" y="0.999512" width="81.9999" height="48.6666" rx="5" stroke="#E1A200" stroke-width="2"/>
<rect x="1.33301" y="64.9995" width="81.9999" height="4.66666" rx="2.33333" stroke="#E1A200" stroke-width="2"/>
<path d="M24.6665 9.99945C24.6665 9.44717 24.2188 8.99945 23.6665 8.99945C23.1142 8.99945 22.6665 9.44717 22.6665 9.99945H24.6665ZM23.6665 39.3328H22.6665C22.6665 39.885 23.1142 40.3328 23.6665 40.3328V39.3328ZM60.9998 40.3328C61.5521 40.3328 61.9998 39.885 61.9998 39.3328C61.9998 38.7805 61.5521 38.3328 60.9998 38.3328V40.3328ZM28.9507 28.9439C28.9507 28.3916 28.5029 27.9439 27.9507 27.9439C27.3984 27.9439 26.9507 28.3916 26.9507 28.9439H28.9507ZM37.131 19.7772L37.8376 19.0696C37.4471 18.6798 36.8148 18.6798 36.4244 19.0696L37.131 19.7772ZM55.2676 16.1106C55.2676 15.5583 54.8199 15.1106 54.2676 15.1106C53.7153 15.1106 53.2676 15.5583 53.2676 16.1106H55.2676ZM57.9397 12.4439H58.9397C58.9397 11.8916 58.492 11.4439 57.9397 11.4439V12.4439ZM52.4315 11.4439C51.8792 11.4439 51.4315 11.8916 51.4315 12.4439C51.4315 12.9962 51.8792 13.4439 52.4315 13.4439V11.4439ZM56.9397 17.9439C56.9397 18.4962 57.3874 18.9439 57.9397 18.9439C58.492 18.9439 58.9397 18.4962 58.9397 17.9439H56.9397ZM23.6665 40.3328H27.9507V38.3328H23.6665V40.3328ZM28.9507 39.3328V28.9439H26.9507V39.3328H28.9507ZM27.9507 40.3328H37.131V38.3328H27.9507V40.3328ZM38.131 39.3328V19.7772H36.131V39.3328H38.131ZM37.131 40.3328H43.8632V38.3328H37.131V40.3328ZM44.8632 39.3328V26.4994H42.8632V39.3328H44.8632ZM43.8632 40.3328H54.2676V38.3328H43.8632V40.3328ZM54.2676 40.3328H60.9998V38.3328H54.2676V40.3328ZM55.2676 39.3328V16.1106H53.2676V39.3328H55.2676ZM22.6665 9.99945V33.2217H24.6665V9.99945H22.6665ZM22.6665 33.2217V39.3328H24.6665V33.2217H22.6665ZM24.3731 33.9293L37.8376 20.4849L36.4244 19.0696L22.9599 32.514L24.3731 33.9293ZM36.4244 20.4849L43.1566 27.2071L44.5698 25.7918L37.8376 19.0696L36.4244 20.4849ZM44.5698 27.2071L58.6463 13.1515L57.2331 11.7363L43.1566 25.7918L44.5698 27.2071ZM57.9397 11.4439H52.4315V13.4439H57.9397V11.4439ZM56.9397 12.4439V17.9439H58.9397V12.4439H56.9397Z" fill="#E1A200"/>
</svg>
