<svg width="85" height="72" viewBox="0 0 85 72" fill="none" xmlns="http://www.w3.org/2000/svg">
<path d="M29.2982 49.569H6.96387C4.20244 49.569 1.96387 47.3304 1.96387 44.569V6.42993C1.96387 3.66851 4.20244 1.42993 6.96387 1.42993H78.5329C81.2943 1.42993 83.5329 3.66851 83.5329 6.42993V44.569C83.5329 47.3304 81.2943 49.569 78.5329 49.569H76.5909" stroke="#E1A200" stroke-width="2" stroke-linecap="round" stroke-linejoin="round"/>
<path d="M29.2982 64.2782H5.30686C3.46058 64.2782 1.96387 65.7749 1.96387 67.6212V67.6212C1.96387 69.4675 3.46057 70.9642 5.30686 70.9642H80.1899C82.0362 70.9642 83.5329 69.4675 83.5329 67.6212V67.6212C83.5329 65.7749 82.0362 64.2782 80.1899 64.2782H76.5909" stroke="#E1A200" stroke-width="2" stroke-linecap="round" stroke-linejoin="round"/>
<path d="M68.8242 31.9667V25.1508C68.8242 22.3893 66.5856 20.1508 63.8242 20.1508H41.7314C38.97 20.1508 36.7314 22.3893 36.7314 25.1508V63.2898C36.7314 66.0513 38.97 68.2898 41.7314 68.2898H49.742" stroke="#E1A200" stroke-width="2" stroke-linecap="round" stroke-linejoin="round"/>
<rect x="54.4512" y="36.5343" width="16.7092" height="32.7555" rx="6" stroke="#E1A200" stroke-width="2" stroke-linecap="round" stroke-linejoin="round"/>
<circle cx="63.4744" cy="65.6154" r="1.3372" fill="#FFDB5E"/>
</svg>
