<svg width="66" height="59" viewBox="0 0 66 59" fill="none" xmlns="http://www.w3.org/2000/svg">
<path d="M42.8564 37H21.4415H6C3.23858 37 1 34.7614 1 32V6C1 3.23858 3.23858 1 6 1H57C59.7614 1 62 3.23858 62 6V31.6316" stroke="#E1A200" stroke-width="2" stroke-linecap="round" stroke-linejoin="round"/>
<path d="M42.4648 48H21.4085H3.5C2.11929 48 1 49.1193 1 50.5V50.5C1 51.8807 2.11929 53 3.5 53H47" stroke="#E1A200" stroke-width="2" stroke-linecap="round" stroke-linejoin="round"/>
<path d="M13 23.5882C13.9722 22.7255 16.6944 21 19.8056 21C23.6944 21 27.5833 24.8824 31.1481 24.8824C34.713 24.8824 39.25 21 42.4907 21C45.0833 21 47.2438 22.7255 48 23.5882M24.3426 29.0882C25.7469 30.0588 29.0741 32 31.1481 32C33.2222 32 36.1173 30.0588 37.3056 29.0882" stroke="#E1A200" stroke-width="2" stroke-linecap="round" stroke-linejoin="round"/>
<rect x="46" y="31" width="19" height="27" rx="9.5" stroke="#E1A200" stroke-width="2" stroke-linecap="round" stroke-linejoin="round"/>
<rect x="54" y="36" width="3" height="6" rx="1.5" fill="#E1A200"/>
<path d="M43 21C43 14.9249 38.0751 10 32 10C25.9249 10 21 14.9249 21 21" stroke="#E1A200" stroke-width="2" stroke-linecap="round" stroke-linejoin="round"/>
</svg>
