<svg width="74" height="64" viewBox="0 0 74 64" fill="none" xmlns="http://www.w3.org/2000/svg">
<g filter="url(#filter0_d)">
<rect x="6" y="1" width="62" height="37" rx="5" stroke="#E1A200" stroke-width="2"/>
<rect x="6" y="49" width="62" height="4" rx="2" stroke="#E1A200" stroke-width="2"/>
<path d="M24 8C24 7.44772 23.5523 7 23 7C22.4477 7 22 7.44772 22 8H24ZM23 30H22C22 30.5523 22.4477 31 23 31V30ZM51 31C51.5523 31 52 30.5523 52 30C52 29.4477 51.5523 29 51 29V31ZM27.2131 22.2083C27.2131 21.656 26.7654 21.2083 26.2131 21.2083C25.6608 21.2083 25.2131 21.656 25.2131 22.2083H27.2131ZM33.0984 15.3333L33.8049 14.6257C33.4145 14.2359 32.7822 14.2359 32.3918 14.6257L33.0984 15.3333ZM46.9508 12.5833C46.9508 12.031 46.5031 11.5833 45.9508 11.5833C45.3985 11.5833 44.9508 12.031 44.9508 12.5833H46.9508ZM48.7049 9.83333H49.7049C49.7049 9.28105 49.2572 8.83333 48.7049 8.83333V9.83333ZM44.5738 8.83333C44.0215 8.83333 43.5738 9.28105 43.5738 9.83333C43.5738 10.3856 44.0215 10.8333 44.5738 10.8333V8.83333ZM47.7049 13.9583C47.7049 14.5106 48.1526 14.9583 48.7049 14.9583C49.2572 14.9583 49.7049 14.5106 49.7049 13.9583H47.7049ZM23 31H26.2131V29H23V31ZM27.2131 30V22.2083H25.2131V30H27.2131ZM26.2131 31H33.0984V29H26.2131V31ZM34.0984 30V15.3333H32.0984V30H34.0984ZM33.0984 31H38.1475V29H33.0984V31ZM39.1475 30V20.375H37.1475V30H39.1475ZM38.1475 31H45.9508V29H38.1475V31ZM45.9508 31H51V29H45.9508V31ZM46.9508 30V12.5833H44.9508V30H46.9508ZM22 8V25.4167H24V8H22ZM22 25.4167V30H24V25.4167H22ZM23.7066 26.1243L33.8049 16.041L32.3918 14.6257L22.2934 24.709L23.7066 26.1243ZM32.3918 16.041L37.441 21.0826L38.8541 19.6674L33.8049 14.6257L32.3918 16.041ZM38.8541 21.0826L49.4115 10.541L47.9983 9.1257L37.441 19.6674L38.8541 21.0826ZM48.7049 8.83333H44.5738V10.8333H48.7049V8.83333ZM47.7049 9.83333V13.9583H49.7049V9.83333H47.7049Z" fill="#E1A200"/>
</g>
<defs>
<filter id="filter0_d" x="0" y="0" width="74" height="64" filterUnits="userSpaceOnUse" color-interpolation-filters="sRGB">
<feFlood flood-opacity="0" result="BackgroundImageFix"/>
<feColorMatrix in="SourceAlpha" type="matrix" values="0 0 0 0 0 0 0 0 0 0 0 0 0 0 0 0 0 0 127 0"/>
<feOffset dy="5"/>
<feGaussianBlur stdDeviation="2.5"/>
<feColorMatrix type="matrix" values="0 0 0 0 0 0 0 0 0 0 0 0 0 0 0 0 0 0 0.4 0"/>
<feBlend mode="normal" in2="BackgroundImageFix" result="effect1_dropShadow"/>
<feBlend mode="normal" in="SourceGraphic" in2="effect1_dropShadow" result="shape"/>
</filter>
</defs>
</svg>
