<svg viewBox="0 0 84 71" fill="none" xmlns="http://www.w3.org/2000/svg">
<rect x="1" y="1.33295" width="81.9999" height="48.6666" rx="5" stroke-width="2"/>
<rect x="0.999512" y="65.3328" width="81.9999" height="4.66666" rx="2.33333" stroke-width="2"/>
<path fill-rule="evenodd" clip-rule="evenodd" d="M52.1948 37.4263C45.1188 40.4684 36.9164 37.1983 33.8743 30.1222C30.8322 23.0462 34.1023 14.8439 41.1783 11.8017C48.2544 8.75964 56.4567 12.0298 59.4988 19.1058C62.541 26.1818 59.2708 34.3842 52.1948 37.4263ZM32.991 32.7853C37.0213 39.5597 45.5472 42.4612 52.9847 39.2637C61.0755 35.7853 64.8146 26.4067 61.3362 18.3159C57.8579 10.2251 48.4792 6.48598 40.3884 9.96435C32.7331 13.2555 28.9736 21.8289 31.5375 29.5957L21.994 33.6987C21.4866 33.9168 21.2521 34.505 21.4703 35.0123L22.0651 36.396C22.2832 36.9034 22.8714 37.1379 23.3788 36.9197L32.9356 32.8111C32.9544 32.803 32.9729 32.7944 32.991 32.7853Z" fill="#E1A200"/>
</svg>
