<svg width="25" height="25" viewBox="0 0 25 25" fill="none" xmlns="http://www.w3.org/2000/svg">
<path d="M12.4383 0C5.65244 0 0.150635 5.5018 0.150635 12.2877C0.150635 19.0735 5.65244 24.5753 12.4383 24.5753C19.2242 24.5753 24.726 19.0735 24.726 12.2877C24.726 5.50029 19.2242 0 12.4383 0ZM9.36639 18.2395H6.29447V7.48777H9.36639V18.2395ZM7.92564 6.82886C7.13002 6.82886 6.48647 6.18375 6.48647 5.38812C6.48647 4.59249 7.13158 3.94738 7.92564 3.94738C8.72127 3.94889 9.36639 4.59401 9.36639 5.38812C9.36639 6.18375 8.72127 6.82886 7.92564 6.82886ZM20.1181 18.2395H17.0462V11.5919C17.0462 10.8131 16.8234 10.2679 15.8665 10.2679C14.2799 10.2679 13.9742 11.5919 13.9742 11.5919V18.2395H10.9023V7.48777H13.9742V8.51531C14.4135 8.17896 15.5102 7.48929 17.0462 7.48929C18.0415 7.48929 20.1181 8.08524 20.1181 11.6855V18.2395Z" fill="#BBBBBB"/>
</svg>
