<svg width="26" height="26" viewBox="0 0 26 26" fill="none" xmlns="http://www.w3.org/2000/svg">
<path d="M12.8631 0.700684C6.08772 0.700684 0.575439 6.21296 0.575439 12.9884C0.575439 19.7633 6.08772 25.276 12.8631 25.276C19.638 25.276 25.1508 19.7633 25.1508 12.9884C25.1508 6.21296 19.639 0.700684 12.8631 0.700684ZM15.9189 13.4209H13.9198C13.9198 16.6149 13.9198 20.5463 13.9198 20.5463H10.9575C10.9575 20.5463 10.9575 16.653 10.9575 13.4209H9.54941V10.9026H10.9575V9.27374C10.9575 8.10714 11.5119 6.28423 13.9471 6.28423L16.1422 6.29265V8.73721C16.1422 8.73721 14.8083 8.73721 14.5489 8.73721C14.2896 8.73721 13.9208 8.86689 13.9208 9.42322V10.9031H16.1778L15.9189 13.4209Z" fill="#454545"/>
</svg>
